<svg xmlns="http://www.w3.org/2000/svg" version="1.1" xmlns:xlink="http://www.w3.org/1999/xlink" xmlns:svgjs="http://svgjs.dev/svgjs" viewBox="0 0 800 800"><g stroke-width="2" stroke="hsl(0, 0%, 100%)" fill="none" data-darkreader-inline-stroke="" style="--darkreader-inline-stroke:#e8e6e3;"><path d="M3505.795772861148 -2173.0270695701242C3874.70819708205 -1030.9412741246852 3648.4275353255916 868.8054005807799 2385.300136730083 2153.865316918801C1122.1727381345745 3438.925233256822 -1714.3940953688273 4694.461743493437 -2557.215740397294 3995.2605288523855C-3400.037385425762 3296.0593142113366 -2321.022142920532 323.40928457335167 -1660.2437594065666 -1202.30051335825C-999.4653758926015 -2728.0103112898523 -461.7377354193659 -3125.9118020084916 614.5205004697418 -3328.1465012193C1690.7787363588504 -3530.381200430108 3136.8833486402455 -3315.1128650155633 3505.795772861148 -2173.0270695701242C3874.70819708205 -1030.9412741246852 3648.4275353255916 868.8054005807799 2385.300136730083 2153.865316918801 "></path><path d="M3462.052166558058 -2136.7873655924914C3825.7686411420464 -1010.7872855758615 3602.6750309596237 862.2023937112162 2357.3381591048965 2129.162874607857C1112.0012872501684 3396.1233555044973 -1684.613900710931 4633.976252920878 -2515.564818344631 3944.6229427113913C-3346.5157359783316 3255.269632501906 -2282.6978912548657 324.4879131405128 -1631.2262455368714 -1179.7330143976865C-979.7545998188771 -2683.9539419358857 -449.6005880847015 -3076.2511863063746 611.4990811017433 -3275.6375094719606C1672.598750288188 -3475.023832637546 3098.33569197407 -3262.7874456091217 3462.052166558058 -2136.7873655924914C3825.7686411420464 -1010.7872855758615 3602.6750309596237 862.2023937112162 2357.3381591048965 2129.162874607857 "></path><path d="M3418.3087128428597 -2100.547631097281C3776.8292377899334 -990.6332665094596 3556.9226791815454 855.5994173592317 2329.3763340675996 2104.4604628144916C1101.8299889536547 3353.3215082697507 -1654.8335534651444 4573.490792865898 -2473.913743704077 3893.985387087976C-3292.9939339430102 3214.4799813100544 -2244.3734870013086 325.56657222525246 -1602.2085790792855 -1157.1654849195443C-960.0436711572629 -2639.8975420643405 -437.4632881621469 -3026.59054008668 608.4778143216345 -3223.128487207043C1654.4189168054154 -3419.6664343274056 3059.788187895785 -3210.461995685102 3418.3087128428597 -2100.547631097281C3776.8292377899334 -990.6332665094596 3556.9226791815454 855.5994173592317 2329.3763340675996 2104.4604628144916 "></path><path d="M3374.5650455046143 -2064.3076829790234C3727.8896208147735 -970.479033820011 3511.1701137804203 848.996654630293 2301.414295407256 2079.7582646441715C1091.6584770340933 3310.519874658051 -1625.0534198424045 4513.005546433963 -2432.2628826865703 3843.348045087605C-3239.472345530736 3173.690543741248 -2206.049296370798 326.64544493303856 -1573.1911262447466 -1134.5977418183552C-940.3329561186947 -2595.840928569749 -425.32620186263875 -2976.9296802439385 605.4563339184788 -3170.6192513190786C1636.2388696995959 -3364.3088223942186 3021.2404701944533 -3158.1363321380354 3374.5650455046143 -2064.3076829790234C3727.8896208147735 -970.479033820011 3511.1701137804203 848.996654630293 2301.414295407256 2079.7582646441715 "></path><path d="M3330.821408683946 -2028.0679790013905C3678.9500343571917 -950.3250452711877 3465.4175788968723 842.3936477607303 2273.452287264491 2055.055822333228C1081.486995632109 3267.717996905727 -1595.2732557020865 4452.520055861405 -2390.611991151485 3792.7104589466117C-3185.950726600884 3132.900862031818 -2167.7250752227096 327.7240735001992 -1544.1736428926292 -1112.0302428577916C-920.6222105625493 -2551.784559215782 -413.1890850455525 -2927.2690645418215 602.4348840329017 -3118.110259571739C1618.0588531113553 -3308.9514546016567 2982.6927830106997 -3105.810912731594 3330.821408683946 -2028.0679790013905C3678.9500343571917 -950.3250452711877 3465.4175788968723 842.3936477607303 2273.452287264491 2055.055822333228 "></path><path d="M3287.0778939335914 -1991.8280003655548C3630.0105699699225 -930.1707820641604 3419.665166083638 835.7909155493708 2245.490401192038 2030.353654680488C1071.3156363004387 3224.916393811606 -1565.492969491456 4392.0348399470495 -2348.9609775460876 3742.0731474638205C-3132.4289856007194 3092.1114549805916 -2129.4007320043083 328.8029767255639 -1515.1560374701996 -1089.4624692390244C-900.9113429360909 -2507.7279152036117 -401.0518461581537 -2877.6081741815015 599.4135562176366 -3065.6009931661965C1599.8789585934273 -3253.5938121508916 2944.1452178972586 -3053.4852186669486 3287.0778939335914 -1991.8280003655548C3630.0105699699225 -930.1707820641604 3419.665166083638 835.7909155493708 2245.490401192038 2030.353654680488 "></path><path d="M3243.3343181480795 -1955.588296387922C3581.071044547498 -910.0167935153368 3373.912692235247 829.1879086798072 2217.5284540844295 2005.6512123695447C1061.1442159336111 3182.1145160592823 -1535.7127443159816 4331.549349374492 -2307.3100249758463 3691.4355613228263C-3078.9073056357106 3051.321773271162 -2091.0764498210638 329.88160529272545 -1486.1384930829263 -1066.8949702784598C-881.2005363447888 -2463.671545849645 -388.9146683059116 -2827.947558479385 596.3921673672157 -3013.0920014188573C1581.699003040343 -3198.236444358329 2905.597591748662 -3001.159799260507 3243.3343181480795 -1955.588296387922C3581.071044547498 -910.0167935153368 3373.912692235247 829.1879086798072 2217.5284540844295 2005.6512123695447 "></path><path d="M3199.5906813274123 -1919.3485618927111C3532.131458089916 -889.8627744489349 3328.1601573517 822.5849323278217 2189.566445941665 1980.9488005761796C1050.9727345316282 3139.3126688245356 -1505.9325801756638 4271.063889319512 -2265.6591334407613 3640.798005699411C-3025.3856867058585 3010.5321220793094 -2052.7522286729754 330.9602643774642 -1457.1210097308092 -1044.327440800318C-861.4897907886432 -2419.6151459781 -376.7775514888258 -2778.28691225969 593.3707174816382 -2960.5829791539395C1563.5189864521017 -3142.879046048189 2867.0499045649085 -2948.8343493364873 3199.5906813274123 -1919.3485618927111C3532.131458089916 -889.8627744489349 3328.1601573517 822.5849323278217 2189.566445941665 1980.9488005761796 "></path><path d="M3155.8471360594785 -1883.1086137744533C3483.1919631850687 -869.7085417594863 3282.4077140208874 815.982169598884 2161.6045293516327 1956.2466024058604C1040.8013446823788 3096.5110352128368 -1476.1523244826114 4210.57864288758 -2224.008150352942 3590.160663699042C-2971.863976223272 2969.7426845105047 -2014.4279159721525 332.0391370852508 -1428.1034348259577 -1021.759697699129C-841.7789536797629 -2375.5585324835083 -364.64034311900514 -2728.6260524169484 590.349359148795 -2908.0737432659753C1545.3390614165955 -3087.521434115002 2828.5023089338893 -2896.5086857894207 3155.8471360594785 -1883.1086137744533C3483.1919631850687 -869.7085417594863 3282.4077140208874 815.982169598884 2161.6045293516327 1956.2466024058604 "></path><path d="M3112.1034992388113 -1846.8686656561956C3434.252376727487 -849.5543090700376 3236.6551791373404 809.3794068699458 2133.642521208868 1931.5444042355412C1030.6298632803955 3053.709401601137 -1446.3721603422932 4150.093396455645 -2182.3572588178567 3539.5233216986726C-2918.3423572934194 2928.953246941699 -1976.103694824064 333.1180097930369 -1399.0859514738406 -999.1919545979399C-822.0682081236173 -2331.5019189889163 -352.50322630191886 -2678.9651925742064 587.3279092632179 -2855.564507378011C1527.1590448283541 -3032.1638221818152 2789.9546217501356 -2844.1830222423537 3112.1034992388113 -1846.8686656561956C3434.252376727487 -849.5543090700376 3236.6551791373404 809.3794068699458 2133.642521208868 1931.5444042355412 "></path><path d="M3068.3599844884566 -1810.628961678563C3385.3129123402177 -829.4003205212139 3190.902766324106 802.7764000003826 2105.680635136415 1906.841961924597C1020.4585039487247 3010.907523848813 -1416.591874131663 4089.6079058830865 -2140.7062452124587 3488.8857355576774C-2864.8206162932547 2888.1635652322693 -1937.7793516056631 334.196638360198 -1370.068346051411 -976.6244556373758C-802.3573404971589 -2287.445549634949 -340.3659874145201 -2629.30457687209 584.3065814479528 -2803.0555156306714C1508.9791503104261 -2976.8064543892533 2751.4070566366945 -2791.857602835912 3068.3599844884566 -1810.628961678563C3385.3129123402177 -829.4003205212139 3190.902766324106 802.7764000003826 2105.680635136415 1906.841961924597 "></path><path d="M3024.6161035271634 -1774.3889830427272C3336.373081742011 -809.246057314187 3145.149987299934 796.1736677890226 2077.718382853025 1882.1397942718568C1010.2867784061159 2968.1059207546914 -1386.8119541319697 4029.1226899687317 -2099.0555978179987 3438.248424074887C-2811.2992415040276 2847.374158181042 -1899.4553745981996 335.2755415855622 -1341.0511068399187 -954.0566820186086C-782.6468390816381 -2243.388905622779 -328.22911473805925 -2579.64368651177 581.2848874217507 -2750.546249225129C1490.7988895815597 -2921.448811938488 2712.859125312316 -2739.5319087712674 3024.6161035271634 -1774.3889830427272C3336.373081742011 -809.246057314187 3145.149987299934 796.1736677890226 2077.718382853025 1882.1397942718568 "></path><path d="M2980.8725582592306 -1738.1495232057196C3287.4335868371636 -789.0923129059884 3099.397543969121 789.570416778834 2049.7564662629948 1857.4371078202885C1000.115388556867 2925.3037988617425 -1357.0316984389174 3968.636955255549 -2057.404614730179 3387.610593793268C-2757.7775310214406 2806.584232330987 -1861.1310618973766 336.3539260120988 -1312.0335319350675 -931.4894271986695C-762.9360019727578 -2199.3327804094374 -316.0919063682386 -2529.9833149502783 578.2635290889075 -2698.0375016184144C1472.6189645460536 -2866.091688286551 2674.3115296812966 -2687.2067335054508 2980.8725582592306 -1738.1495232057196C3287.4335868371636 -789.0923129059884 3099.397543969121 789.570416778834 2049.7564662629948 1857.4371078202885 "></path><path d="M2937.1289214385624 -1701.909330946837C3238.494000379582 -768.9378360759147 3053.645009085574 782.9678981905217 2021.7944581202282 1832.7351537905952C989.9439071548832 2882.5024093906677 -1327.2515342985996 3908.151952964241 -2015.7537231950942 3336.9734959335237C-2704.2559120915885 2765.7950389028065 -1822.8068407492883 337.4330428605099 -1283.0160485829501 -908.9214399568555C-743.225256416612 -2155.2759227742204 -303.9547895511523 -2480.3222109669114 575.2420792033299 -2645.528021589825C1454.438947957813 -2810.733832212739 2635.763842497544 -2634.8808258177587 2937.1289214385624 -1701.909330946837C3238.494000379582 -768.9378360759147 3053.645009085574 782.9678981905217 2021.7944581202282 1832.7351537905952 "></path><path d="M2893.3855897936764 -1665.669596451626C3189.5547190977813 -748.7838170095129 3007.8927793778084 776.3649218385367 1993.8327551532448 1808.032741997229C979.7727309286815 2839.700562155922 -1297.4710649825004 3847.6664929092613 -1974.1025264842278 3286.3359403101085C-2650.733987985955 2725.005387710956 -1784.4823144254185 338.5117019452491 -1253.9982600550518 -886.3539104787133C-723.5142056846851 -2111.2195229026756 -291.8173675582848 -2430.6615647472163 572.2209344935345 -2593.018999324908C1436.2592365453534 -2755.376433902599 2597.2164604895725 -2582.555375893739 2893.3855897936764 -1665.669596451626C3189.5547190977813 -748.7838170095129 3007.8927793778084 776.3649218385367 1993.8327551532448 1808.032741997229 "></path><path d="M2849.6417698675396 -1629.4298924739933C3140.614949534731 -728.6298284606892 2962.1400613887918 769.7619149689726 1965.8705639050104 1783.330299686285C969.601066421229 2796.898684403597 -1267.6910839476511 3787.1810023367016 -1932.4518180546113 3235.6983541691125C-2597.2125521615717 2684.2157060015243 -1746.1582763827987 339.59033051240976 -1224.9809598084034 -863.7864115181492C-703.803643234008 -2067.1631535487086 -279.6804338466677 -2381.0009490451 569.1993015024882 -2540.510007577568C1418.0790368516437 -2700.019066110037 2558.66859020035 -2530.2299564872974 2849.6417698675396 -1629.4298924739933C3140.614949534731 -728.6298284606892 2962.1400613887918 769.7619149689726 1965.8705639050104 1783.330299686285 "></path><path d="M2805.8982245996076 -1593.1901579787825C3091.6754546298835 -708.4758093942874 2916.387618057979 763.158938616988 1937.90864731498 1758.6278878929197C959.42967657198 2754.0968371688514 -1237.9108282545988 3726.695542281722 -1890.8008349667916 3185.0607985456973C-2543.6908416789847 2643.4260548096727 -1707.8339636819758 340.66898959714945 -1195.9633849035517 -841.218882040007C-684.0928061251279 -2023.1067536771636 -267.54322547684706 -2331.340302825405 566.177943169645 -2488.0009853126508C1399.8991118161375 -2644.6616677998963 2520.120994569331 -2477.9045065632777 2805.8982245996076 -1593.1901579787825C3091.6754546298835 -708.4758093942874 2916.387618057979 763.158938616988 1937.90864731498 1758.6278878929197 "></path><path d="M2762.1546182965185 -1556.9502098605249C3042.73589868988 -688.3215767048387 2870.6351136920102 756.5561758880499 1909.9466696897925 1733.9256897226005C949.2582256875748 2711.2952035571525 -1208.1306335967024 3666.210295849788 -1849.1499129141284 3134.423456545328C-2490.1691922315545 2602.636617240867 -1669.509712016309 341.74786230493555 -1166.9458710338565 -818.6511389388179C-664.382030051404 -1979.0501401825716 -255.4060781421831 -2281.679442982663 563.156523801646 -2435.4917494246865C1381.7191257454742 -2589.3040558667094 2481.5733379031553 -2425.578843016211 2762.1546182965185 -1556.9502098605249C3042.73589868988 -688.3215767048387 2870.6351136920102 756.5561758880499 1909.9466696897925 1733.9256897226005 "></path><path d="M2718.4109814758503 -1520.710261742267C2993.796312232299 -668.16734401539 2824.882578808464 749.9534131591117 1881.984661547027 1709.2234915522831C939.0867442855911 2668.4935699454536 -1178.3504694563846 3605.725049417855 -1807.4990213790434 3083.7861145449588C-2436.6475733017023 2561.8471796720623 -1631.1854908682208 342.8267350127221 -1137.9283876817394 -796.0833958376288C-644.6712844952583 -1934.9935266879797 -243.26896132509683 -2232.0185831399212 560.1350739160684 -2382.982513536722C1363.5391091572337 -2533.9464439335225 2443.0256507194017 -2373.253179469144 2718.4109814758503 -1520.710261742267C2993.796312232299 -668.16734401539 2824.882578808464 749.9534131591117 1881.984661547027 1709.2234915522831 "></path><path d="M2674.6674667254956 -1484.4705272470565C2944.8568478450297 -648.0133249489882 2779.1301659952296 743.3504368071272 1854.0227754745747 1684.521079758917C928.9153849539202 2625.691722710707 -1148.5701832457542 3545.2395893628754 -1765.8480077736458 3033.1485589215436C-2383.1258323015372 2521.0575284802107 -1592.8611476498197 343.90539409746134 -1108.9107822593098 -773.5158663594866C-624.9604168687999 -1890.9371268164346 -231.13172243769804 -2182.3579369202266 557.1137461008038 -2330.4734912718045C1345.3592146393053 -2478.5890456233824 2404.4780856059606 -2320.9277295451243 2674.6674667254956 -1484.4705272470565C2944.8568478450297 -648.0133249489882 2779.1301659952296 743.3504368071272 1854.0227754745747 1684.521079758917 "></path><path d="M2630.9238604224056 -1448.2305791287986C2895.917291905026 -627.8590922595395 2733.37766162926 736.747674078189 1826.060797849388 1659.8188815885987C918.743934069515 2582.890089099008 -1118.789988587858 3484.7543429309417 -1724.1970857209826 2982.5112169211743C-2329.604182854107 2480.268090911406 -1554.536895984153 344.9842668052479 -1079.8932683896146 -750.9481232582975C-605.249640795076 -1846.8805133218427 -218.99457510303364 -2132.697077077485 554.0923267328044 -2277.9642553838403C1327.1792285686429 -2423.2314336901954 2365.930428939786 -2268.6020659980577 2630.9238604224056 -1448.2305791287986C2895.917291905026 -627.8590922595395 2733.37766162926 736.747674078189 1826.060797849388 1659.8188815885987 "></path><path d="M2587.1802541193165 -1411.990875151166C2846.9777359650225 -607.705103710716 2687.625157263291 730.1446672086254 1798.0988202242006 1635.1164392776536C908.5724831851098 2540.0882113466823 -1089.009793929962 3424.268852358383 -1682.5461636683192 2931.873630780179C-2276.0825334066767 2439.4784092019745 -1516.2126443184866 346.06289537240855 -1050.8757545199192 -728.3806242977337C-585.538864721352 -1802.824143967876 -206.85742776836923 -2083.036461375368 551.070907364805 -2225.4552636365006C1308.9992424979796 -2367.874065897633 2327.3827722736105 -2216.276646591616 2587.1802541193165 -1411.990875151166C2846.9777359650225 -607.705103710716 2687.625157263291 730.1446672086254 1798.0988202242006 1635.1164392776536 "></path><path d="M2543.4364647107577 -1375.7511711735333C2798.03799691955 -587.5511151618923 2641.8724697918533 723.5416603390622 1770.1366594935444 1610.4139969667103C898.4008491952359 2497.2863335943584 -1059.2297823775345 3363.783361785825 -1640.8954247211248 2881.236044639185C-2222.5610670647147 2398.688727492545 -1477.8885757582887 347.14152393956965 -1021.8584237556929 -705.8131253371698C-565.8282717530967 -1758.767774613909 -194.72046353917403 -2033.3758456732514 548.0493048913372 -2172.9462718891614C1290.8190733218485 -2312.516698105071 2288.8349325019663 -2163.9512271851745 2543.4364647107577 -1375.7511711735333C2798.03799691955 -587.5511151618923 2641.8724697918533 723.5416603390622 1770.1366594935444 1610.4139969667103 "></path><path d="M2499.6928584076686 -1339.5111925376973C2749.0984409795465 -567.3968519548653 2596.1199654258844 716.9389281277026 1742.1746818683573 1585.7118293139702C888.2293983108302 2454.4847305002377 -1029.4495877196384 3303.2981458714694 -1599.2445026684613 2830.598733156394C-2169.0394176172845 2357.899320441318 -1439.564324092622 348.2204271649339 -992.8409098859975 -683.2453517184024C-546.117495679373 -1714.7111306017391 -182.58331620450963 -1983.7149553129316 545.0278855233378 -2120.437005483619C1272.639087251186 -2257.159055654306 2250.2872758357908 -2111.6255331205293 2499.6928584076686 -1339.5111925376973C2749.0984409795465 -567.3968519548653 2596.1199654258844 716.9389281277026 1742.1746818683573 1585.7118293139702 "></path><path d="M2455.9492521045786 -1303.2714885600647C2700.158885039543 -547.2428634060416 2550.3674610599155 710.3359212581395 1714.2127042431703 1561.0093870030264C878.057947426425 2411.682852747914 -999.6693930617423 3242.8126552989124 -1557.5935806157981 2779.9611470154005C-2115.517768169854 2317.1096387318885 -1401.2400724269555 349.29905573209544 -963.8233960163022 -660.6778527578383C-526.406719605649 -1670.654761247772 -170.44616886984545 -1934.0543396108148 542.0064661553388 -2067.9280137362794C1254.4591011805228 -2201.801687861744 2211.7396191696153 -2059.3001137140877 2455.9492521045786 -1303.2714885600647C2700.158885039543 -547.2428634060416 2550.3674610599155 710.3359212581395 1714.2127042431703 1561.0093870030264 "></path><path d="M2412.2056458014895 -1267.0317540648539C2651.219329099539 -527.0888443396398 2504.6149566939466 703.7329449061544 1686.2507266179832 1536.3069752096612C867.8864965420194 2368.881005513167 -969.8891984038462 3182.327195243932 -1515.942658563135 2729.3235913919834C-2061.9961187224235 2276.319987540036 -1362.9158207612888 350.37771481683467 -934.805882146607 -638.1103232796961C-506.6959435319252 -1626.598361376227 -158.30902153518105 -1884.39369339112 538.9850467873393 -2015.418991471362C1236.2791151098604 -2146.444289551604 2173.1919625034398 -2006.974663790068 2412.2056458014895 -1267.0317540648539C2651.219329099539 -527.0888443396398 2504.6149566939466 703.7329449061544 1686.2507266179832 1536.3069752096612 "></path><path d="M2368.4621005335557 -1230.791805946596C2602.279834194692 -506.9346116501911 2458.862513363134 697.1301821772167 1658.2888100279524 1511.6047770393425C857.7151066927709 2326.079371901468 -940.1089427107938 3121.841948811999 -1474.2916754753155 2678.686249391615C-2008.474408239837 2235.5305499712313 -1324.591508060466 351.4565875246212 -905.7883072417553 -615.542580178507C-486.98510642304495 -1582.5417478816353 -146.17181316536062 -1834.7328335483783 535.9636884544962 -1962.9097555833976C1218.0991900743538 -2091.0866776184166 2134.6443668724205 -1954.6490002430014 2368.4621005335557 -1230.791805946596C2602.279834194692 -506.9346116501911 2458.862513363134 697.1301821772167 1658.2888100279524 1511.6047770393425 "></path><path d="M2324.7184942304666 -1194.5518578283386C2553.340278254688 -486.7803789607426 2413.110008997165 690.5274194482777 1630.326832402765 1486.9025788690233C847.5436558083652 2283.2777382897684 -910.3287480528977 3061.356702380065 -1432.640753422652 2628.048907391245C-1954.9527587924067 2194.7411124024256 -1286.2672563947995 352.5354602324069 -876.7707933720603 -592.9748370773182C-467.2743303493212 -1538.4851343870432 -134.03466583069644 -1785.0719737056365 532.9422690864976 -1910.400519695433C1199.919204003691 -2035.7290656852297 2096.0967102062455 -1902.3233366959346 2324.7184942304666 -1194.5518578283386C2553.340278254688 -486.7803789607426 2413.110008997165 690.5274194482777 1630.326832402765 1486.9025788690233 "></path><path d="M2280.9748879273775 -1158.3121233331276C2504.4007223146855 -466.6263598943408 2367.357504631196 683.9244430962931 1602.3648547775779 1462.2001670756576C837.37220492396 2240.4758910550227 -880.5485533950016 3000.8712423250845 -1390.989831369989 2577.411351767829C-1901.4311093449762 2153.951461210574 -1247.9430047291328 353.61411931714656 -847.7532795023649 -570.407307599176C-447.5635542755972 -1494.4287345154983 -121.89751849603226 -1735.4113274859415 529.9208497184982 -1857.8914974305155C1181.7392179330282 -1980.3716673750896 2057.5490535400704 -1849.9978867719146 2280.9748879273775 -1158.3121233331276C2504.4007223146855 -466.6263598943408 2367.357504631196 683.9244430962931 1602.3648547775779 1462.2001670756576 "></path><path d="M2237.2313426594446 -1122.0724193554952C2455.461227409838 -446.4723713455169 2321.6050613003836 677.3214362267299 1574.402938187547 1437.4977247647143C827.200815074711 2197.6740133026988 -850.7682977019495 2940.3857517525266 -1349.3388482821695 2526.7737656268355C-1847.9093988623895 2113.1617795011434 -1209.6186920283099 354.69274788430766 -818.7357045975136 -547.8398086386119C-427.85271716671696 -1450.3723651615314 -109.7603101262116 -1685.750711783825 526.8994913856554 -1805.382505683176C1163.559292897522 -1925.0142995825277 2019.0014579090512 -1797.672467365473 2237.2313426594446 -1122.0724193554952C2455.461227409838 -446.4723713455169 2321.6050613003836 677.3214362267299 1574.402938187547 1437.4977247647143 "></path><path d="M2193.487736356355 -1085.8327153778623C2406.5216714698345 -426.3183827966932 2275.8525569344147 670.7184293571668 1546.44096056236 1412.7952824537706C817.0293641903054 2154.872135550374 -820.9881030440532 2879.900261179968 -1307.687926229506 2476.1361794858403C-1794.3877494149592 2072.3720977917137 -1171.2944403626434 355.77137645146877 -789.7181907278182 -525.2723096780478C-408.14194109299297 -1406.3159958075644 -97.62316279154743 -1636.090096081708 523.878072017656 -1752.8735139358369C1145.3793068268587 -1869.6569317899655 1980.4538012428757 -1745.3470479590314 2193.487736356355 -1085.8327153778623C2406.5216714698345 -426.3183827966932 2275.8525569344147 670.7184293571668 1546.44096056236 1412.7952824537706 "></path><path d="M2149.7441605708436 -1049.5927367420263C2357.582146047409 -406.16411958966614 2230.1000830860235 664.1156971458067 1518.479013454751 1388.09311480103C806.8579438234783 2112.070532456253 -791.2078778685789 2819.415045265613 -1266.0369736592647 2425.49886800305C-1740.8660694499506 2031.5826907404862 -1132.9701581793986 356.85027967683345 -760.7006463405448 -502.7045360592806C-388.43113450169085 -1362.2593517953944 -85.48598493930513 -1586.4292057213884 520.8566831672351 -1700.3642475302943C1127.1993512737745 -1814.2992893392004 1941.9061750942788 -1693.0213538943865 2149.7441605708436 -1049.5927367420263C2357.582146047409 -406.16411958966614 2230.1000830860235 664.1156971458067 1518.479013454751 1388.09311480103 "></path><path d="M2106.000584785332 -1013.3527886237687C2308.642620624983 -386.0098869002177 2184.3476092376327 657.5129344168686 1490.5170663471417 1363.3909166307112C796.6865234566512 2069.2688988445534 -761.4276526931046 2758.9297988336793 -1224.3860210890234 2374.861526002681C-1687.344389484942 1990.793253171682 -1094.6458759961538 357.92915238461956 -731.6831019532714 -480.1367929580915C-368.72032791038896 -1318.2027383008026 -73.3488070870626 -1536.7683458786464 517.8352943168138 -1647.8550116423298C1109.0193957206898 -1758.9416774060132 1903.3585489456818 -1640.69569034732 2106.000584785332 -1013.3527886237687C2308.642620624983 -386.0098869002177 2184.3476092376327 657.5129344168686 1490.5170663471417 1363.3909166307112 "></path><path d="M2062.25685641193 -977.1131761988704C2259.702942614667 -365.85598990412836 2138.5949828013513 650.909835994571 1462.5549666516422 1338.688382767033C786.5149505019335 2026.4669295394951 -731.647580105521 2698.444216708387 -1182.7352211066727 2324.2238483089513C-1633.8228621078242 1950.003479909517 -1056.3217464007998 359.0076893990463 -702.6657101538887 -457.5693855502618C-349.00967390697747 -1274.14646049957 -61.21178182271092 -1487.1078217292643 514.8137528785019 -1595.346111447725C1090.839287579715 -1703.5844011661857 1864.8107702091938 -1588.3703624936124 2062.25685641193 -977.1131761988704C2259.702942614667 -365.85598990412836 2138.5949828013513 650.909835994571 1462.5549666516422 1338.688382767033 "></path><path d="M2018.513372179153 -940.8734722212379C2210.7635087449758 -345.7020013553049 2092.842600505695 644.3068291250079 1434.5931110967676 1313.9859404560889C776.3436216878408 1983.6650517871703 -701.8672633773125 2637.9587261358283 -1141.0841769836968 2273.586262167958C-1580.3010905900812 1909.2137982000868 -1017.9973726648207 360.0863179662074 -673.6480742138808 -435.00188658969773C-329.2987757629412 -1230.0900911456033 -49.07451241773401 -1437.4472060271473 511.79245558081493 -1542.8371197003855C1072.6594235793646 -1648.2270333736237 1826.2632356133308 -1536.0449430871709 2018.513372179153 -940.8734722212379C2210.7635087449758 -345.7020013553049 2092.842600505695 644.3068291250079 1434.5931110967676 1313.9859404560889 "></path><path d="M1974.7698269112202 -904.6335241029801C2161.8240138401284 -325.547768665856 2047.0901571748818 637.7040663960697 1406.6311945067368 1289.2837422857706C766.1722318385914 1940.8634181754715 -672.0870076842601 2577.4734797038955 -1099.4331938958774 2222.948920167588C-1526.7793801074945 1868.4243606312812 -979.6730599639977 361.1651906739935 -644.6304993090295 -412.4341434885089C-309.58793865406096 -1186.0334776510113 -36.937304047913585 -1387.7863461844058 508.7710972479722 -1490.327883812421C1054.479498543858 -1592.8694214404366 1787.715639982312 -1483.7192795401043 1974.7698269112202 -904.6335241029801C2161.8240138401284 -325.547768665856 2047.0901571748818 637.7040663960697 1406.6311945067368 1289.2837422857706 "></path><path d="M1931.0262206081306 -868.3937896077692C2112.8844579001247 -305.39374959945417 2001.3376528089134 631.1010900440847 1378.6692168815498 1264.581330492405C756.0007809541858 1898.0615709407252 -642.3068130263639 2516.9880196489157 -1057.782271843214 2172.311364544172C-1473.2577306600642 1827.6347094394296 -941.3488082983313 362.2438497587327 -615.6129854393341 -389.8666140103667C-289.877162580337 -1141.9770777794663 -24.80015671324918 -1338.1256999647107 505.7496778799732 -1437.8188615475037C1036.2995124731956 -1537.5120231302963 1749.1679833161365 -1431.3938296160843 1931.0262206081306 -868.3937896077692C2112.8844579001247 -305.39374959945417 2001.3376528089134 631.1010900440847 1378.6692168815498 1264.581330492405 "></path><path d="M1887.2825227523072 -832.1538414895116C2063.9448104073867 -285.2395169100055 1955.5850568902101 624.4983273151465 1350.707147703628 1239.8791323220858C745.8292385170466 1855.2599373290254 -612.5267099212023 2456.502773216982 -1016.1314413432851 2121.6740225438025C-1419.736172765368 1786.845271870624 -903.024648185399 363.3227224665193 -586.5955631223733 -367.2988709091776C-270.16647805934736 -1097.9204642848745 -12.663100931319377 -1288.4648401219692 502.7281669592394 -1385.3096256595393C1018.1194348497979 -1482.1544111971093 1710.6202350972267 -1379.0681660690177 1887.2825227523072 -832.1538414895116C2063.9448104073867 -285.2395169100055 1955.5850568902101 624.4983273151465 1350.707147703628 1239.8791323220858 "></path><path d="M1843.5388248964832 -795.9139849239883C2015.0051629146487 -265.08537577329116 1909.8324609715064 617.8954730334744 1322.7450785257065 1215.176842599033C735.6576960799066 1812.4582121645922 -582.7466068160405 2396.017435232314 -974.4806108433563 2071.0365889906993C-1366.2146148706722 1746.0557427490849 -864.7004880724668 364.401503621571 -557.5781408054123 -344.7312193607231C-250.45579353835797 -1053.8639423430168 -0.526045149389347 -1238.8040718319617 499.7066560385058 -1332.8004813243092C999.9393572264012 -1426.7968908166567 1672.0724868783168 -1326.7425940746853 1843.5388248964832 -795.9139849239883C2015.0051629146487 -265.08537577329116 1909.8324609715064 617.8954730334744 1322.7450785257065 1215.176842599033 "></path><path d="M1799.7952185933937 -759.6741588760431C1966.0656069746456 -244.93126515415497 1864.0799566055375 611.2925882342233 1294.78310090052 1190.4745223584023C725.4862451955014 1769.6564564825803 -552.9664121581444 2335.5320667300684 -932.829688790693 2020.399124920018C-1312.6929654232417 1705.2661831099672 -826.3762364068001 365.4802542590446 -528.5606269357171 -322.16359832984654C-230.7450174646342 -1009.8074509187375 11.611102185274603 -1189.1433340595324 496.6852366705066 -1280.2913675066573C981.7593711557383 -1371.439400953782 1633.5248302121418 -1274.4170525979312 1799.7952185933937 -759.6741588760431C1966.0656069746456 -244.93126515415497 1864.0799566055375 611.2925882342233 1294.78310090052 1190.4745223584023 "></path><path d="M1756.0516428078822 -723.4344548984103C1917.12608155222 -224.77727660533128 1818.3274827571468 604.6895813646606 1266.8211537929105 1165.772080047458C715.3148248286743 1726.854578730256 -523.18618698267 2275.04657615751 -891.1787362204517 1969.7615387790238C-1259.1712854582331 1664.476501400537 -788.0519542235554 366.55888282620595 -499.54308254844375 -299.59609936928246C-211.03421087333209 -965.7510815647706 23.748280037517134 -1139.4827183574157 493.6638478200855 -1227.7823757593178C963.5794156026536 -1316.0820331612201 1594.9772040635444 -1222.0916331914896 1756.0516428078822 -723.4344548984103C1917.12608155222 -224.77727660533128 1818.3274827571468 604.6895813646606 1266.8211537929105 1165.772080047458 "></path><path d="M1712.3080670223708 -687.1945067801527C1868.1865561297946 -204.6230439158826 1772.575008908756 598.086818635722 1238.8592066853016 1141.0698818771393C705.143404461847 1684.0529451185566 -493.4059618071958 2214.561329725577 -849.5277836502103 1919.1241967786546C-1205.6496054932247 1623.6870638317318 -749.7276720403107 367.63775553399205 -470.5255381611703 -277.0283562680934C-191.32340428202997 -921.6944680701787 35.88545788975944 -1089.821858514674 490.6424589696644 -1175.2731398713536C945.3994600495689 -1260.724421228033 1556.429577914947 -1169.7659696444227 1712.3080670223708 -687.1945067801527C1868.1865561297946 -204.6230439158826 1772.575008908756 598.086818635722 1238.8592066853016 1141.0698818771393 "></path><path d="M1668.5644607192812 -650.9547722849419C1819.247000189791 -184.46902484948077 1726.822504542787 591.4838422837374 1210.8972290601141 1116.3674700837742C694.9719535774416 1641.2510978838104 -463.6257671492998 2154.075869670597 -807.8768615975471 1868.4866411552384C-1152.1279560457942 1582.8974126398798 -711.4034203746442 368.7164146187315 -441.50802429147507 -254.46082678995117C-171.61262820830598 -877.6380681986336 48.02260522442384 -1040.1612122949791 487.62103960166496 -1122.764117606436C927.2194739789065 -1205.3670229178929 1517.881921248772 -1117.4405197204028 1668.5644607192812 -650.9547722849419C1819.247000189791 -184.46902484948077 1726.822504542787 591.4838422837374 1210.8972290601141 1116.3674700837742 "></path><path d="M1624.820915451348 -614.7149462369966C1770.3075052849435 -164.31491423034458 1681.070061211974 584.8809574844863 1182.9353124700833 1091.6651498431424C684.8005637281926 1598.4493422017986 -433.84551145624744 2093.590501168351 -766.2258785097275 1817.8491770845562C-1098.6062455632077 1542.1078530007621 -673.0791076738212 369.7951652562049 -412.4904493866236 -231.8932057590746C-151.90179109942574 -833.5815767743543 60.15981359424427 -990.5004745225499 484.5996812688222 -1070.255003788784C909.0395489434 -1150.0095330550184 1479.3343256177532 -1065.1149782436487 1624.820915451348 -614.7149462369966C1770.3075052849435 -164.31491423034458 1681.070061211974 584.8809574844863 1182.9353124700833 1091.6651498431424 "></path><path d="M1581.0773091482592 -578.4751201890515C1721.36794934494 -144.1608036112084 1635.3175568460051 578.2780726852359 1154.9733348448963 1066.9628296025112C674.6291128437874 1555.6475865197872 -404.0653167983512 2033.105132666105 -724.5749564570642 1767.211713013875C-1045.0845961157772 1501.3182933616445 -634.7548560081545 370.8739158936787 -383.47293551692826 -209.325584728198C-132.19101502570197 -789.5250853500748 72.29696092890845 -940.8397367501207 481.578261900823 -1017.7458899711323C890.8595628727371 -1094.6520431921438 1440.7866689515777 -1012.7894367668946 1581.0773091482592 -578.4751201890515C1721.36794934494 -144.1608036112084 1635.3175568460051 578.2780726852359 1154.9733348448963 1066.9628296025112 "></path><path d="M1537.3337333627478 -542.2352636235282C1672.4284239225149 -124.00666247449408 1589.5650829976148 571.6752184035636 1127.0113877372874 1042.2605398794585C664.4576924769601 1512.8458613553535 -374.2850916228771 1972.6197946814377 -682.9240038868229 1716.5742794607718C-991.5629161507686 1460.5287642401054 -596.4305738249099 371.95269704873067 -354.4553911296549 -186.7579331797433C-112.48020843440008 -745.4685634082173 84.43413878115098 -891.1789684601133 478.5568730504019 -965.2367456359023C872.6796073196526 -1039.2945228116912 1402.2390428029803 -960.4638647725621 1537.3337333627478 -542.2352636235282C1672.4284239225149 -124.00666247449408 1589.5650829976148 571.6752184035636 1127.0113877372874 1042.2605398794585 "></path><path d="M1493.5901270596582 -505.99543757558297C1623.4888679825112 -103.85255185535789 1543.8125786316455 565.0723336043127 1099.0494101121003 1017.5582196388268C654.2862415925549 1470.0441056733412 -344.50489696498096 1912.1344261791915 -641.2730818341596 1665.9368153900896C-938.0412667033382 1419.7392046009873 -558.1063221592433 373.0314476862043 -325.4378772599596 -164.19031214886672C-92.76943236067598 -701.412071983938 96.57128611581538 -841.5182306876841 475.5354536824025 -912.7276318182503C854.4996212489898 -983.9370329488166 1363.6913861368052 -908.138323295808 1493.5901270596582 -505.99543757558297C1623.4888679825112 -103.85255185535789 1543.8125786316455 565.0723336043127 1099.0494101121003 1017.5582196388268 "></path><path d="M1449.8465512741468 -469.7556115276377C1574.5493425600857 -83.6984412362217 1498.0601047832547 558.4694488050623 1071.087463004491 992.855899398196C644.1148212257276 1427.2423499913298 -314.7246717895067 1851.6490576769456 -599.6221292639182 1615.2993513194078C-884.5195867383297 1378.94964496187 -519.7820399759985 374.1101983236779 -296.42033287268623 -141.62269111799014C-73.05862576937398 -657.3555805596586 108.70846396805769 -791.8574929152549 472.5140648319814 -860.2185180005985C836.3196656959055 -928.5795430859421 1325.1437599882079 -855.8127818190538 1449.8465512741468 -469.7556115276377C1574.5493425600857 -83.6984412362217 1498.0601047832547 558.4694488050623 1071.087463004491 992.855899398196 "></path><path d="M1406.1029754886354 -433.51575496211444C1525.6098171376602 -63.54430009950738 1452.307630934864 551.8665945233897 1043.1255158968825 968.1536096751433C633.9434008589003 1384.440624826896 -284.9444466140325 1791.1637196922784 -557.9711766936769 1564.6619177663042C-830.9979067733212 1338.1601158403305 -481.4577577927538 375.18897947872983 -267.4027884854129 -119.05503956953544C-53.34781917807197 -613.299058617801 120.84564182029999 -742.1967246252475 469.4926759815603 -807.7093736653685C818.1397101428208 -873.2220227054894 1286.5961338396105 -803.4872098247215 1406.1029754886354 -433.51575496211444C1525.6098171376602 -63.54430009950738 1452.307630934864 551.8665945233897 1043.1255158968825 968.1536096751433 "></path><path d="M1362.3593081503896 -397.2759289141693C1476.6702001625004 -43.39018948037119 1406.5550655337388 545.2637097241388 1015.1634772365387 943.4512894345116C623.7718889393389 1341.6388691448842 -255.1643129912926 1730.6783511900326 -516.3203156761698 1514.0244536956225C-777.4763183610471 1297.3705562012128 -443.1335671622435 376.26773011620344 -238.3853356508739 -96.48741853865909C-33.637104139504345 -569.2425671935216 132.98272811980814 -692.5359868528183 466.47119557840506 -755.2002598477166C799.9596630370017 -817.8645328426148 1248.0484161382792 -751.1616683479673 1362.3593081503896 -397.2759289141693C1476.6702001625004 -43.39018948037119 1406.5550655337388 545.2637097241388 1015.1634772365387 943.4512894345116 "></path><path d="M1318.615610294566 -361.03610286622416C1427.7305526697628 -23.236078861235 1360.8024696150355 538.6608249248884 987.2014080586173 918.7489691938806C613.6003465021993 1298.8371134628728 -225.38420988613098 1670.1929826877868 -474.669485176241 1463.3869896249412C-723.954760466351 1256.5809965620952 -404.8094070493112 377.34648075367727 -209.36791333391307 -73.9197975077825C-13.926419618514728 -525.1860757692423 145.11978390173795 -642.875249080389 463.44968465767147 -702.6911460300646C781.7795854136048 -762.5070429797404 1209.5006679193693 -698.8361268712131 1318.615610294566 -361.03610286622416C1427.7305526697628 -23.236078861235 1360.8024696150355 538.6608249248884 987.2014080586173 918.7489691938806 "></path><path d="M1274.872126061789 -324.79636837101316C1378.7911188000717 -3.082059794833185 1315.0500873193787 532.0578485729034 959.2395525037427 894.046557400515C603.4290176881063 1256.0352662281266 -195.60389315792224 1609.7075226328066 -433.0184410532652 1412.749434001525C-670.4329889486081 1215.791345370243 -366.4850333133321 378.4251398384167 -180.35027739390523 -51.3522680296403C5.784478525521763 -481.1296758976972 157.25705330671462 -593.2146028606942 460.42838735998475 -650.1821237651471C763.5997214132544 -707.1496446696001 1170.9531333235063 -646.5106769471934 1274.872126061789 -324.79636837101316C1378.7911188000717 -3.082059794833185 1315.0500873193787 532.0578485729034 959.2395525037427 894.046557400515 "></path><path d="M1231.128428205965 -288.55660335822427C1329.8514713073337 17.071989789146755 1269.2974914006754 525.4549027384965 931.2774833258211 869.3441761247275C593.2574752509668 1213.2334495109585 -165.8237900527605 1549.2220930954045 -391.3676105533363 1362.1119088956866C-616.9114310539121 1175.0017246959696 -328.1608732003999 379.5038294407341 -151.33285507694427 -28.78470803391997C25.495163046511266 -437.073245508574 169.39410908864454 -543.5539261234212 457.40687643925094 -597.6730709826516C745.4196437898574 -651.7922158418819 1132.405385104597 -594.1851965055953 1231.128428205965 -288.55660335822427C1329.8514713073337 17.071989789146755 1269.2974914006754 525.4549027384965 931.2774833258211 869.3441761247275 "></path><path d="M1187.38491345561 -252.316746792701C1280.9120069200644 37.22613092586107 1223.545078587441 518.8520484568239 903.3155972533684 844.6418864016744C583.0861159192957 1170.4317243465248 -136.04350384213012 1488.7367551107368 -349.7165969479387 1311.474475342583C-563.3896900537472 1134.2121955744296 -289.83652998199886 380.5826105957858 -122.31524965451467 -6.217056485465378C45.20603067296952 -393.01672356671656 181.5313479760432 -493.8931578334138 454.3855486239861 -545.1639266474215C727.239749271929 -596.4346954614292 1093.857819991156 -541.8596245112631 1187.38491345561 -252.316746792701C1280.9120069200644 37.22613092586107 1223.545078587441 518.8520484568239 903.3155972533684 844.6418864016744 "></path><path d="M1143.6413071525208 -216.07692074475585C1231.9724509800606 57.38024154499726 1177.7925742214723 512.2491636575733 875.3536196281811 819.9395661610429C572.9146650348905 1127.6299686645127 -106.263309184234 1428.251386608491 -308.0656748952754 1260.8370112719012C-509.86804060631687 1093.422635935312 -251.5122783163323 381.66136123325964 -93.29773578481945 16.350564545411203C64.91680674669351 -348.96023214243723 193.6684953107075 -444.23242006098457 451.3641292559869 -492.65481282976964C709.0597632012662 -541.0772055985547 1055.3101633249805 -489.5340830345088 1143.6413071525208 -216.07692074475585C1231.9724509800606 57.38024154499726 1177.7925742214723 512.2491636575733 875.3536196281811 819.9395661610429 "></path><path d="M1099.897670331853 -179.8370946968106C1183.032864522479 77.53435216413345 1132.040039337925 505.6462788583226 847.3916114854162 795.2372459204121C562.743183632907 1084.828212982501 -76.48314504391601 1367.7660181062452 -266.41478336019026 1210.19954720122C-456.3464216764646 1052.6330762961945 -213.1880571682438 382.74011187073324 -64.28025243270235 38.91818557628767C84.62755230283915 -304.9037407181578 205.80561212779355 -394.57168228855534 448.34267937040954 -440.14569901211775C690.8797466130254 -485.71971573568015 1016.7624761412271 -437.20854155775464 1099.897670331853 -179.8370946968106C1183.032864522479 77.53435216413345 1132.040039337925 505.6462788583226 847.3916114854162 795.2372459204121 "></path><path d="M1056.1540335111854 -143.5972381312872C1134.0932780648973 97.68849330084777 1086.287504454378 499.04342457665007 819.4296033426508 770.5349561973587C552.5717022309236 1042.0264878180674 -46.702980903597904 1307.2806801215775 -224.76389182510513 1159.5621136481163C-402.82480274661236 1011.843547174655 -174.86383602015536 383.8188930257852 -35.262769080585144 61.485837124742375C104.33829785898502 -260.8472187763003 217.94272894487972 -344.9109139985479 445.3212294848322 -387.6365546768877C672.6997300247845 -430.36219535522747 978.2147889574735 -384.8829695634223 1056.1540335111854 -143.5972381312872C1134.0932780648973 97.68849330084777 1086.287504454378 499.04342457665007 819.4296033426508 770.5349561973587 "></path><path d="M1012.4104272080958 -107.35741208334207C1085.1537221248936 117.84260391998396 1040.5350000884089 492.4405397773994 791.4676257174635 745.8326359567275C542.4002513465182 999.2247321360555 -16.9227862457019 1246.7953116193316 -183.1129697724419 1108.9246495774344C-349.30315329918193 971.0539875355373 -136.53958435448874 384.8976436632588 -6.245255210889923 84.05345815561896C124.049073932709 -216.7907273520209 230.079876279544 -295.2501762261187 442.299810116833 -335.12744085923583C654.5197439541219 -375.0047054923529 939.6671322912985 -332.5574280866681 1012.4104272080958 -107.35741208334207C1085.1537221248936 117.84260391998396 1040.5350000884089 492.4405397773994 791.4676257174635 745.8326359567275 "></path><path d="M968.6668514225848 -71.11758603539693C1036.2141967024684 137.99671453912015 994.7825262400183 485.837654978149 763.5056786098546 721.1303157160964C532.2288309796909 956.4229764540439 12.857438929772343 1186.309943117086 -141.4620172022005 1058.287185506753C-295.78147333417337 930.2644278964199 -98.21530217124399 385.9763943007324 22.772289176383538 106.62107918649554C143.7598805240109 -172.73423592774145 242.21705413178643 -245.58943845368947 439.2784212664119 -282.61832704158394C636.3397884010374 -319.6472156294784 901.1195061427011 -280.2318866099139 968.6668514225848 -71.11758603539693C1036.2141967024684 137.99671453912015 994.7825262400183 485.837654978149 763.5056786098546 721.1303157160964 "></path><path d="M924.9232756370734 -34.87779050502979C987.2746712800429 158.1507946406782 949.0300523916274 479.2347396613202 735.5437315022455 696.4279649578871C522.0574106128638 913.621190254454 42.637664105246586 1125.8245440972619 -99.81106463195908 1007.649690918493C-242.25979336916487 889.4748377397241 -59.89101998799924 387.055114420628 51.789833563656885 129.188669699794C163.470687115313 -128.67777502104025 254.35423198402884 -195.92873119883836 436.2570324159907 -230.10924374151017C618.1598328479527 -264.289756284182 862.5718799941039 -227.90637565073786 924.9232756370734 -34.87779050502979C987.2746712800429 158.1507946406782 949.0300523916274 479.2347396613202 735.5437315022455 696.4279649578871 "></path><path d="M881.1796388164057 1.3620355429153506C938.3350848224611 178.3049052598144 903.2775175080803 472.6318548620693 707.5817233594803 671.7256447172558C511.88592921088036 870.8194345724421 72.41782824556458 1065.3391755950163 -58.16017309687396 957.0122268478112C-188.73817443931262 848.6852781006064 -21.566798839910803 388.1338650581017 80.80731691577398 151.75629073067046C183.18143267145877 -84.6212835967608 266.491348801115 -146.26799342640913 433.23558253041347 -177.60012992385828C599.9798162597117 -208.93226642130742 824.0241928103505 -175.58083417398365 881.1796388164057 1.3620355429153506C938.3350848224611 178.3049052598144 903.2775175080803 472.6318548620693 707.5817233594803 671.7256447172558 "></path><path d="M837.4360325133164 37.60173952054811C889.3955288824577 198.4588938086381 857.5250131421112 466.02884799250637 679.6197457342932 647.0232024063121C501.71447832647505 828.017556820118 102.1980229034607 1004.853685022458 -16.509251044210714 906.3746407068172C-135.21652499188218 807.8955963911762 16.75745282575582 389.21249362526305 109.8248307854692 174.32378969123454C202.89220874518276 -40.56491424279392 278.6284961357792 -96.6073777242924 430.21416316241425 -125.09113817651888C581.7998301890491 -153.57489862874542 785.476536144175 -123.25541476754194 837.4360325133164 37.60173952054811C889.3955288824577 198.4588938086381 857.5250131421112 466.02884799250637 679.6197457342932 647.0232024063121 "></path><path d="M793.6924567278052 73.84159608607138C840.4560034600322 218.6130349453524 811.7725392937205 459.42599371083384 651.6577986266843 622.3209126832589C491.54305795964785 785.2158316556843 131.97824807893494 944.3683470377903 25.14170152603066 855.7372071537134C-81.69484502687362 767.1060672696367 55.08173500900057 390.2912747803148 138.84237517274266 196.89144123968913C222.60301533648476 3.491607699063593 290.7656739880216 -46.94660943428505 427.19277431199305 -72.58199384128886C563.6198746359645 -98.21737824829273 746.9289099955781 -70.92984277320966 793.6924567278052 73.84159608607138C840.4560034600322 218.6130349453524 811.7725392937205 459.42599371083384 651.6577986266843 622.3209126832589 "></path><path d="M749.9488504247156 110.08142213401658C791.5164475200286 238.7671455644886 766.0200349277516 452.8231089115832 623.6958210014972 597.6185924426279C481.37160707524254 742.4140759736724 161.75844273683106 883.8829785355445 66.7926235786939 805.0997430830319C-28.173195579443245 726.316507630519 93.40598667466713 391.3700254177885 167.85988904243789 219.4590622705657C242.31379141020864 47.54809912334298 302.9028213226859 2.714128338144235 424.17135494399383 -20.07288002363697C545.4398885653018 -42.859888385418174 708.3812533294026 -18.604301296455446 749.9488504247156 110.08142213401658C791.5164475200286 238.7671455644886 766.0200349277516 452.8231089115832 623.6958210014972 597.6185924426279 "></path><path d="M706.2052136040479 146.32124818196178C742.5768610624468 258.9212561836248 720.2675000442044 446.2202241123325 595.7338128587318 572.9162722019965C471.2001256732591 699.6123202916606 191.53860687714905 823.3976100332986 108.44351511377909 754.4622790123499C25.348423350409007 685.5269479914014 131.73020782275563 392.4487760552622 196.87737239455504 242.0266833014423C262.0245369663545 91.60459054762237 315.03993813977195 52.374866110573464 421.1499050584165 32.436233794014925C527.2598719770609 12.497601477456328 669.8335661456492 33.721240180298764 706.2052136040479 146.32124818196178C742.5768610624468 258.9212561836248 720.2675000442044 446.2202241123325 595.7338128587318 572.9162722019965 "></path><path d="M662.4616073009586 182.5611047474851C693.6373051224433 279.0753973203391 674.5149956782356 439.6173698306601 567.7718352335446 548.2139824789435C461.0286747888538 656.810595127227 221.31880153504517 762.9122720486309 150.09443716644233 703.8248454592465C78.87007279783944 644.737418869862 170.05445948842225 393.52755721031394 225.89488626425032 264.594334849897C281.7353130400784 135.66111248947988 327.17708547443635 102.03563440058082 418.12848569041716 84.94537812924494C509.0798859063982 67.85512185790901 631.2859094794738 86.0468121746311 662.4616073009586 182.5611047474851C693.6373051224433 279.0753973203391 674.5149956782356 439.6173698306601 567.7718352335446 548.2139824789435 "></path><path d="M618.7180315154473 218.80090027785218C644.6977797000179 299.2294774218972 628.7625218298447 433.0144545138313 539.8098881259357 523.5116317207342C450.8572544220266 614.0088089276371 251.0990267105194 702.4268730288071 191.7453897366837 653.1873508709867C132.391752762848 603.9478287131662 208.37874167166694 394.60627733020965 254.91243065152366 287.16192536319545C301.44611963138044 179.71757339618114 339.31426332667866 151.69634165543192 415.1070968399962 137.45446142931866C490.8999303533136 123.21258120320545 592.7382833308766 138.37232313380713 618.7180315154473 218.80090027785218C644.6977797000179 299.2294774218972 628.7625218298447 433.0144545138313 539.8098881259357 523.5116317207342 "></path><path d="M574.9744252123578 255.04074158458639C595.7582237600143 319.3836032998224 583.0100174638758 426.4115849733697 511.84791050074864 498.8093267388921C440.68580353762127 571.2070685044143 280.87922136841553 641.9415197853504 233.39631178934695 602.549902059094C185.91340221027838 563.1582843328376 246.70299333733357 395.6850432264723 283.92994452121894 309.729561652861C321.1568957051043 223.77408007924964 351.45141066134295 201.3570946866502 412.08567747199686 189.9635905057596C472.7199442826509 178.570086324869 554.1906266647013 190.6978798693504 574.9744252123578 255.04074158458639C595.7582237600143 319.3836032998224 583.0100174638758 426.4115849733697 511.84791050074864 498.8093267388921 "></path><path d="M531.2308189092684 291.28053711495346C546.8186678200107 339.5376834013805 537.2575130979069 419.80866965654104 483.88593287556137 474.1069759806827C430.51435265321595 528.4052823048244 310.65941602631165 581.4561207655264 275.0472338420102 551.9124074708342C239.43505165770875 522.368694176142 285.0272450030002 396.7637633463679 312.9474583909142 332.29715216615944C340.86767177882825 267.8305409859509 363.58855799600724 251.01780194150138 409.06425810399764 242.47267380583338C454.53995821198816 233.92754567016544 515.642969998526 243.0233908285265 531.2308189092684 291.28053711495346C546.8186678200107 339.5376834013805 537.2575130979069 419.80866965654104 483.88593287556137 474.1069759806827 "></path><path d="M487.48722786496796 327.52036316289866C497.8791271387962 359.6917940205167 491.50502399072695 413.2057848572903 455.9239705091634 449.40465574005157C420.3429170275997 485.60352662281264 340.4396259429968 520.9707522632807 316.69817115346257 501.27494340015255C292.95671636392825 481.5791345370243 323.3515119274559 397.8425139838416 341.96498751939856 354.86477319703596C360.57846311134125 311.8870324102303 375.72572058946054 300.6785397139306 406.0428539947875 294.9817876234853C436.3599874001145 289.28503553304 477.0953285911397 295.3489323052807 487.48722786496796 327.52036316289866C497.8791271387962 359.6917940205167 491.50502399072695 413.2057848572903 455.9239705091634 449.40465574005157 "></path><path d="M443.74360630308945 363.76018921084386C448.9395559400036 379.8459046396529 445.75250436596895 406.6029000580397 427.96197762518716 424.7023354994203C410.1714508844053 442.80177094080085 370.2198053421039 460.4853837610349 358.34907794733675 450.6374793294708C346.4783505525696 440.7895748979067 361.6757483343334 398.92126462131534 370.9824861303047 377.43239422791254C380.28922392627607 355.9435238345097 387.8628526653357 350.33927748635983 403.0214193679992 347.49090144113717C418.1799860706627 344.6425253959145 438.5476566661753 347.67447378203485 443.74360630308945 363.76018921084386C448.9395559400036 379.8459046396529 445.75250436596895 406.6029000580397 427.96197762518716 424.7023354994203 "></path></g></svg>