<svg xmlns="http://www.w3.org/2000/svg" version="1.1" xmlns:xlink="http://www.w3.org/1999/xlink" xmlns:svgjs="http://svgjs.dev/svgjs" viewBox="0 0 800 800"><g stroke-width="1" stroke="hsl(0, 0%, 100%)" fill="none"><path d="M726.8949502555106 141.5875538997763C756.5484557780374 235.40256018465948 566.559893234328 520.3456850241528 465.47698950969607 629.1043819060252C364.39408578506414 737.8630787878975 321.45033095206327 690.014495952201 241.69701237727736 663.6292989327642C161.94369380249128 637.2441019133273 107.97899166530709 582.5539555460836 82.66106035072369 502.4554362127283C57.34312903614034 422.356916879373 70.07112901501853 346.5862153981061 120.17094206727785 279.15640613265964C170.27075511953717 211.72659686721323 196.73932796235255 207.4525292871026 323.1401630015679 178.79235173858547C449.54099804078317 150.13217419006833 697.2414447329838 47.77254761489314 726.8949502555106 141.5875538997763C756.5484557780374 235.40256018465948 566.559893234328 520.3456850241528 465.47698950969607 629.1043819060252 "></path><path d="M705.1019576408203 158.8150767550256C732.7785627951786 246.37574928758323 555.4559044210498 512.3226658044435 461.1118609447267 613.8307828941911C366.76781746840356 715.3388999839387 326.6869796242695 670.6802226706219 252.2505489544692 646.0540387858142C177.81411828466895 621.4278549010064 127.44706295663036 570.3837182915789 103.81699372968586 495.625100247114C80.18692450274136 420.8664822026492 92.06639114969437 350.1471608201333 138.82621666513643 287.21267217238335C185.58604218057843 224.2781835246334 210.29004350053947 220.28905378319683 328.26415620380703 193.53955473791416C446.2382689070746 166.79005569263148 677.425352486462 71.25440422246794 705.1019576408203 158.8150767550256C732.7785627951786 246.37574928758323 555.4559044210498 512.3226658044435 461.1118609447267 613.8307828941911 "></path><path d="M683.3089039909737 176.0425690926968C709.0086087771635 257.34890787292886 544.3518545726155 504.2996160671563 456.74667134460105 598.5571533647791C369.14148811658686 692.8146906624019 331.9235672613195 651.3459188714647 262.8040244965049 628.4787481212862C193.68448173169037 605.6115773711076 146.91507321279738 558.2134505194963 124.97286607349179 488.79473376392184C103.03065893418619 419.37601700834716 114.06159224921402 353.7080757245825 157.48143022783876 295.26890769452893C200.9012682064635 236.82973966447543 223.84069800357014 233.12554776171294 333.38808837089005 208.28672721966473C442.9354787382099 183.44790667761652 657.6091992047839 94.73623031246467 683.3089039909737 176.0425690926968C709.0086087771635 257.34890787292886 544.3518545726155 504.2996160671563 456.74667134460105 598.5571533647791 "></path><path d="M661.5159418938615 193.270076689157C685.2387463118829 268.32208171706355 533.2478962769155 496.276581588658 452.38157329721 583.283539094156C371.5152503175044 670.290496599654 337.16024645110383 632.0116303310966 273.35759159127497 610.9034727155472C209.55493673144616 589.7953150999978 166.38317502169878 546.0431980062027 146.1288299700321 481.9643825395185C125.8744849183654 417.8855670728343 136.05688490146798 357.26900588782075 176.1367353432754 303.32515847546364C216.21658578508288 249.38131106310652 237.39144405933519 245.96205699901805 338.51211209070743 223.0339149602043C439.63278012207957 200.1057729213906 637.7931374758402 118.21807166125046 661.5159418938615 193.270076689157C685.2387463118829 268.32208171706355 533.2478962769155 496.276581588658 452.38157329721 583.283539094156 "></path><path d="M639.7229340203821 210.4975537680391C661.468838070235 279.2952250436201 522.1438922048483 488.25351659258183 448.0164294734516 568.009894305955C373.8889667420549 647.766272019328 342.3968798645209 612.6773112731505 283.91111290967785 593.3281667922301C225.42534595483477 573.9790223113098 185.85123105423298 533.872914975331 167.2847480902052 475.13400079753717C148.71826512617736 416.3950866197433 158.05213177735476 360.8299055334809 194.79199468234492 311.3813787388202C231.53185758733508 261.9328519441595 250.942144338733 258.79853571874503 343.63609003415763 237.7810721831658C436.33003572958216 216.76360864758658 617.9770299705292 141.69988249245807 639.7229340203821 210.4975537680391C661.468838070235 279.2952250436201 522.1438922048483 488.25351659258183 448.0164294734516 568.009894305955 "></path><path d="M617.929956664481 227.7250613644993C637.6989603461654 290.2683988877548 511.03991865035925 480.23048211408354 443.65131616727126 552.7362800353319C376.2627136841834 625.2420779565801 347.6335437955162 593.3430227327824 294.46466474565887 575.7528913864912C241.2957856958015 558.1627600402 205.31931760434531 521.7026624620374 188.44069672795644 468.30364957313395C171.5620758515675 414.90463668423047 180.04740917081966 364.39083569671914 213.44728453899256 319.43762951975486C246.8471599071654 274.4844233427906 264.492875135709 271.6350449560502 348.76009849518584 252.52825992370543C433.02732185466266 233.42147489136067 598.1609529827965 165.18172384124387 617.929956664481 227.7250613644993C637.6989603461654 290.2683988877548 511.03991865035925 480.23048211408354 443.65131616727126 552.7362800353319 "></path><path d="M596.1369640497907 244.95255370217046C613.9290673633067 301.2415574731004 499.9359298370812 472.2074323767963 439.286187602302 537.4626505059198C378.6364453675228 602.7178686350433 352.8701924677224 574.0087189336252 305.01820132285076 558.1776007219632C257.16621017797917 542.346482510301 224.78738889566864 509.5323946899548 209.5966301069186 461.4732830899417C194.40587131816858 413.41417148992855 202.0426713054955 367.9517506011683 232.10255913685108 327.49386504190045C262.16244696820667 287.0359794826326 278.0435906738959 284.4715389345663 353.8840916974251 267.275432405456C429.7245927209542 250.0793258763457 578.3448607362748 188.6635499312406 596.1369640497907 244.95255370217046C613.9290673633067 301.2415574731004 499.9359298370812 472.2074323767963 439.286187602302 537.4626505059198 "></path><path d="M574.3439409175223 262.1800460398416C590.1591438628699 312.214716058446 488.83191050622486 464.18438263950907 434.9210285197546 522.1890209765077C381.0101465332842 580.1936593135063 358.10681062235045 554.6744151344681 315.5717073824646 540.602310057435C273.0366041425787 526.5302049804022 244.2554296694138 497.36212691787216 230.75253296830266 454.6429166067494C217.24963626719148 411.9237062956265 224.03790292259322 371.5126655056175 250.75780321713154 335.55010056404603C277.4777035116698 299.58753562247466 291.5942756945047 297.30803291308234 359.0080543820862 282.0226048872065C426.4218330696676 266.73717686133074 558.5287379721747 212.14537602123727 574.3439409175223 262.1800460398416C590.1591438628699 312.214716058446 488.83191050622486 464.18438263950907 434.9210285197546 522.1890209765077 "></path><path d="M552.5509788204101 279.4075383775128C566.3892813975892 323.18787464379164 477.7279522105249 456.16133290222183 430.55593047236334 506.91539144709554C383.3839087342018 557.6694499919694 363.34348981213475 535.3401113353109 326.1252744772346 523.027019392907C288.90705914233445 510.7139274505032 263.7235314783152 485.1918591457895 251.90849686484296 447.812550123557C240.09346225137068 410.4332411013246 246.03319557484718 375.07358041006665 269.4131083325682 343.6063360861917C292.79302109028924 312.1390917623167 305.14502175026973 310.1445268915984 364.1320781019035 296.7697773689571C423.1191344535373 283.39502784631577 538.712676243231 235.627202111234 552.5509788204101 279.4075383775128C566.3892813975892 323.18787464379164 477.7279522105249 456.16133290222183 430.55593047236334 506.91539144709554 "></path><path d="M530.7579556881417 296.635030715184C542.6193578971524 334.1610332291373 466.6239328796687 448.1382831649345 426.19077138981595 491.6417619176834C385.75760989996314 535.1452406704325 368.58010796676285 516.0058075361537 336.6787805368484 505.45172872837907C304.777453106934 494.8976499206044 283.1915722520603 473.02159137370677 273.06439972622695 440.9821836403647C262.93722720039364 408.9427759070226 268.0284271919449 378.63449531451585 288.06835241284864 351.6625716083373C308.1082776337524 324.69064790215873 318.69570677087853 322.9810208701145 369.25604078656465 311.51694985070765C419.8163748022507 300.0528788313008 518.8965534791311 259.1090282012307 530.7579556881417 296.635030715184C542.6193578971524 334.1610332291373 466.6239328796687 448.1382831649345 426.19077138981595 491.6417619176834 "></path><path d="M508.9649935910295 313.8625230528551C518.8494954318718 345.13419181448285 455.51997458396863 440.11523342764724 421.8256733424247 476.3681323882714C388.13137210088075 512.6210313488955 373.81678715654715 496.67150373699667 347.2323476316185 487.8764380638511C320.6479081066898 479.0813723907055 302.6596740609617 460.85132360162424 294.22036362276725 434.15181715717245C285.78105318457284 407.4523107127207 290.02371984419887 382.19541021896504 306.72365752828534 359.7188071304829C323.42359521237177 337.24220404200076 332.2464528266436 335.8175148486306 374.380064506382 326.2641223324582C416.5136761861204 316.7107298162858 499.0804917501873 282.5908542912274 508.9649935910295 313.8625230528551C518.8494954318718 345.13419181448285 455.51997458396863 440.11523342764724 421.8256733424247 476.3681323882714 "></path><path d="M487.1719857175502 331.09003064931534C495.07958719022395 356.10736565861754 444.4159705119015 432.09219894914906 417.46052951866636 461.09451811764836C390.5050885254312 490.09683728614766 379.05342056996426 477.33721519662856 357.7858689500213 470.30116265811205C336.5183173300784 463.26511011959565 322.1277300934959 448.6810710883306 315.37628174294036 427.32146593276923C308.6248333923848 405.9618607772078 312.0189667200857 385.7563403822033 325.3789168673548 367.77505791141755C338.73886701462396 349.79377544063186 345.7971531060414 348.6540240859357 379.5040424498321 341.0113100729978C413.2109317936229 333.3685960600599 479.2643842448764 306.0726956400132 487.1719857175502 331.09003064931534C495.07958719022395 356.10736565861754 444.4159705119015 432.09219894914906 417.46052951866636 461.09451811764836 "></path><path d="M465.37897784407085 348.3175077281974C471.3096789485762 367.0805089851741 433.31196643983435 424.0691339530727 413.095385694908 445.8208733294472C392.8788049499816 467.5726127058217 384.2900539833814 458.00289613868233 368.3393902684242 452.725856734795C352.388726553467 447.4488173309077 341.5957861260302 436.51078805745885 336.5321998631135 420.49108419078783C331.4686136001968 404.4713803241168 334.0142135959725 389.31724002786336 344.0341762064243 375.8312781747741C354.05413881687616 362.34531632168483 359.34785338543924 361.4905028056627 384.6280203932823 355.7584672959593C409.90818740112536 350.02643178625584 459.44827673956553 329.5545064712208 465.37897784407085 348.3175077281974C471.3096789485762 367.0805089851741 433.31196643983435 424.0691339530727 413.095385694908 445.8208733294472 "></path><path d="M443.5859852293806 365.5450153246577C447.53978596571744 378.05368282930874 422.2079776265562 416.04609947457453 408.73025712993865 430.5472590588242C395.25253663332103 445.04841864307383 389.5267026555876 438.6686075983143 378.89292684561616 435.150581329056C368.25915103564466 431.6325550597978 361.06385741735346 424.3405355441653 357.68813324207565 413.6607329663846C354.3124090667979 402.9809303886039 356.0094757306483 392.8781701911016 362.6894508042829 383.8875289557088C369.3694258779175 374.89688772031593 372.89856892362616 374.32701204296785 389.75201359552153 370.5056550364989C406.6054582674169 366.68429803002994 439.63218449304367 353.0363478200066 443.5859852293806 365.5450153246577C447.53978596571744 378.05368282930874 422.2079776265562 416.04609947457453 408.73025712993865 430.5472590588242 "></path><path d="M421.79299261469026 382.7724924035398C423.7698929828587 389.0268261558653 411.10398881327814 408.0230344784982 404.3651285649693 415.27361427062306C397.6262683166605 422.5241940627478 394.7633513277938 419.3342885403681 389.44646342280805 417.575275405739C384.12957551782233 415.81626227110985 380.53192870867673 412.1702525132936 378.8440666210378 406.8303512244032C377.1562045333989 401.49044993551286 378.00473786532416 396.43906983676175 381.3447254021414 391.94374921906535C384.68471293895874 387.4484286013689 386.4492844618131 387.1634907626949 394.8760067977608 385.25281225946037C403.30272913370845 383.3421337562259 419.81609224652186 376.5181586512142 421.79299261469026 382.7724924035398C423.7698929828587 389.0268261558653 411.10398881327814 408.0230344784982 404.3651285649693 415.27361427062306 "></path></g></svg>