<svg version="1.0" xmlns="http://www.w3.org/2000/svg"
 width="223" height="223" viewBox="0 0 223 223"
 preserveAspectRatio="xMidYMid meet">
 <style>
    .favicon {
      fill: #1f2937;
    }
    @media (prefers-color-scheme: dark) {
      .favicon { 
          fill: #f9fafb;
      }
    }
  </style>
    <g transform="translate(0.000000,223.000000) scale(0.100000,-0.100000)" class="favicon"
    fill="#000000" stroke="none"> <path d="M130 2047 c0 -8 14 -20 30 -27 17 -7 33 -22 35 -34 3 -11 4 -302 3 -646 l-3 -625 -32 -20 c-62 -39 -45 -45 117 -45 124 0 150 2 150 14 0 8 -12 21 -27 28 -15 7 -30 24 -34 38 -4 14 -7 145 -8 293 l-1 267 274 0 c168 0 277 -4 281 -10 3 -5 -13 -33 -36 -62 -145 -182 -171 -467 -63 -688 51 -104 178 -230 284 -282 135 -67 213 -82 395 -82 133 1 174 4 240 23 106 28 190 69 288 137 72 51 82 55 105 45 54 -25 42 8 -40 107 -62 76 -86 98 -95 90 -9 -7 -10 -15 -2 -30 14 -26 -7 -56 -74 -107 -73 -55 -188 -107 -279 -125 -425 -86 -780 208 -727 601 10 76 67 223 87 223 10 0 262 -403 262 -420 0 -6 -11 -16 -25 -22 -14 -6 -25 -17 -25 -25 0 -10 34 -13 165 -13 136 0 165 3 165 14 0 8 -13 17 -29 21 -16 3 -37 16 -48 28 -20 22 -330 508 -339 531 -3 7 16 23 43 38 161 87 404 101 600 34 146 -50 217 -101 211 -152 -7 -56 22 -32 86 74 36 61 66 115 66 121 0 16 -21 13 -42 -6 -17 -15 -24 -13 -118 31 -134 63 -265 96 -412 103 l-117 6 14 27 c28 54 39 152 26 221 -31 158 -124 253 -290 297 -83 23 -1061 30 -1061 9z m969 -127 c150 -25 221 -105 221 -248 0 -115 -49 -189 -153 -230 -36 -14 -99 -17 -424 -20 l-383 -3 0 255 0 256 338 0 c185 0 366 -5 401 -10z"/>
    </g>
</svg>
