<svg xmlns="http://www.w3.org/2000/svg" xmlns:xlink="http://www.w3.org/1999/xlink" id="visual" version="1.1" viewBox="0 790.59 1920 290.41"><path d="M0 791L80 790.7C160 790.3 320 789.7 480 813C640 836.3 800 883.7 960 899.8C1120 916 1280 901 1440 884.7C1600 868.3 1760 850.7 1840 841.8L1920 833L1920 1081L1840 1081C1760 1081 1600 1081 1440 1081C1280 1081 1120 1081 960 1081C800 1081 640 1081 480 1081C320 1081 160 1081 80 1081L0 1081Z" fill="#0066FF" stroke-linecap="round" stroke-linejoin="miter"/></svg>