<svg viewBox="57.989 120.296 369.217 241.517"
    xmlns="http://www.w3.org/2000/svg">
    <defs></defs>
    <path style="fill-opacity: 0.6;" fill="#9CA3AF" d="M 358.269 139.137 C 392.152 154.928 412.704 198.865 405.642 236.219 C 398.579 273.574 363.903 304.345 330.019 324.759 C 296.175 345.138 263.165 355.198 227.099 358.008 C 191.074 360.857 151.993 356.492 123.545 336.077 C 95.097 315.661 77.322 279.231 84.821 249.792 C 92.28 220.317 125.013 197.831 153.46 182.037 C 181.908 166.245 206.031 157.184 241.661 146.459 C 277.29 135.734 324.425 123.38 358.269 139.137 Z"></path>
    <path d="M 138.276 253.7 C 138.294 251.135 135.528 249.513 133.299 250.78 C 132.111 251.455 131.456 252.785 131.645 254.138 L 122.073 266.673 C 121.238 268.343 121.485 270.351 122.7 271.769 L 123.451 272.644 L 126.896 271.955 L 130.801 268.51 L 130.341 264.606 L 135.165 257.026 L 135.158 257.021 C 136.911 256.909 138.275 255.456 138.276 253.7 Z" fill="#ffb9b9" style=""></path>
    <polygon points="72.083 314.981 70.52 309.178 92.159 300.39 94.465 308.955 72.083 314.981" fill="#ffb8b8" style=""></polygon>
    <path d="M 66.856 317.976 L 61.818 299.265 L 62.055 299.201 C 66.077 298.118 70.216 300.501 71.299 304.522 L 71.299 304.523 L 74.376 315.951 Z" fill="#2f2e41" style=""></path>
    <polygon points="101.89 314.054 97.03 310.519 108.35 290.091 115.523 295.307 101.89 314.054" fill="#ffb8b8" style=""></polygon>
    <path d="M 99.703 319.667 L 84.032 308.27 L 84.176 308.072 C 86.626 304.703 91.343 303.958 94.712 306.407 L 94.712 306.408 L 104.284 313.369 Z" fill="#2f2e41" style=""></path>
    <path d="M 143.204 285.507 L 130.973 273.626 C 128.766 271.482 125.318 271.289 122.886 273.174 L 99.793 298.828 L 101.861 302.044 L 123.91 287.114 L 138.839 306.637 L 153.08 299.517 Z" fill="#2f2e41" style=""></path>
    <path d="M 137.921 288.033 L 128.963 287.344 L 122.476 285.771 C 121.092 283.612 117.889 283.761 116.711 286.039 C 115.533 288.318 117.263 291.017 119.825 290.898 C 120.569 290.864 121.28 290.581 121.844 290.096 L 121.843 290.1 L 125.748 291.708 L 142.514 297.45 L 144.582 295.842 Z" fill="#ffb9b9" style=""></path>
    <polygon points="159.511 312.839 154.458 316.055 148.486 316.055 120.695 305.719 80.041 313.069 78.892 304.341 116.101 288.033 148.716 298.828 159.511 312.839" fill="#2f2e41" style=""></polygon>
    <circle cx="148.716" cy="248.068" r="8.958" fill="#ffb9b9" style=""></circle>
    <path d="M 171.893 283.832 C 171.893 289.238 171.041 294.611 169.369 299.752 L 168.698 301.814 L 165.483 316.514 L 162.038 317.433 L 159.511 314.217 L 154.458 310.542 L 150.783 304.57 L 147.632 299.32 L 146.649 297.68 L 143.204 280.454 L 130.112 273.104 L 125.748 272.415 L 126.666 269.888 L 130.571 264.606 L 134.476 264.146 L 135.624 263.227 L 136.543 263.687 L 141.607 265.638 L 158.027 258.7 L 160.43 259.093 L 168.698 265.984 C 170.812 271.697 171.894 277.74 171.893 283.832 Z" fill="#ccc" style=""></path>
    <polygon points="169.387 281.832 160.659 287.574 147.632 299.32 146.649 297.68 143.893 283.899 144.582 283.899 151.702 270.807 169.387 281.832" opacity="0.1" style="isolation: isolate;"></polygon>
    <polygon points="151.702 269.429 144.582 282.521 140.447 287.115 136.773 288.033 146.649 298.828 160.659 286.196 169.387 280.454 151.702 269.429" fill="#ccc" style=""></polygon>
    <path d="M 141.749 241.408 L 140.778 241.781 C 140.159 241.362 139.996 240.519 140.416 239.9 C 140.421 239.892 140.426 239.884 140.432 239.877 L 138.638 239.793 C 143.521 233.289 152.995 232.526 158.857 238.163 C 158.938 237.882 159.828 238.429 160.192 238.984 C 160.314 238.526 161.149 240.739 161.444 242.302 C 161.58 241.782 162.106 242.622 161.645 243.429 C 161.937 243.386 162.069 244.132 161.843 244.548 C 162.162 244.398 162.108 245.289 161.762 245.885 C 162.218 245.844 161.724 255.223 154.89 254.54 C 154.414 252.354 154.548 252.49 153.988 249.679 C 153.727 249.402 153.442 249.15 153.157 248.898 L 151.615 247.537 C 149.822 245.955 148.191 244.002 145.803 243.41 C 144.161 243.004 143.123 242.912 144.018 241.062 C 143.21 241.399 142.455 241.901 141.64 242.214 C 141.651 241.956 141.765 241.667 141.749 241.408 Z" fill="#2f2e41" style=""></path>
    <circle cx="153.195" cy="249.102" r="1.608" fill="#ffb9b9" style=""></circle>
    <rect x="46.985" y="120.057" width="7.384" height="7.384" transform="matrix(0.066449, -0.99779, 0.99779, 0.066449, -45.18655, 257.401093)" fill="#e6e6e6" style="isolation: isolate;"></rect>
    <path d="M 73.465 215.042 L 82.411 215.637 L 81.815 224.583 L 72.869 223.988 Z M 81.996 216 L 73.828 215.456 L 73.284 223.625 L 81.452 224.169 Z" fill="#ccc" style=""></path>
    <rect x="82.347" y="98.667" width="7.384" height="7.384" transform="matrix(0.977685, -0.210075, 0.210075, 0.977685, 11.396383, 111.668411)" fill="#e6e6e6" style="isolation: isolate;"></rect>
    <path d="M 114.786 185.787 L 116.669 194.552 L 107.903 196.436 L 106.02 187.67 Z M 116.206 194.253 L 114.486 186.25 L 106.483 187.969 L 108.202 195.973 Z" fill="#ccc" style=""></path>
    <rect x="77.425" y="134.168" width="7.384" height="7.384" transform="matrix(0.729839, -0.683619, 0.683619, 0.729839, -41.349552, 184.007248)" fill="#e6e6e6" style="isolation: isolate;"></rect>
    <path d="M 117.702 223.196 L 111.158 229.325 L 105.029 222.781 L 111.573 216.652 Z M 111.176 228.774 L 117.151 223.178 L 111.555 217.203 L 105.58 222.799 Z" fill="#ccc" style=""></path>
    <path class="illustration-computer" d="M 390.949 170.462 L 172.486 170.462 C 169.165 170.462 166.473 173.154 166.473 176.475 L 166.473 298.199 C 166.473 301.52 169.165 304.212 172.486 304.212 L 390.949 304.212 C 394.27 304.212 396.962 301.52 396.962 298.199 L 396.962 176.475 C 396.962 173.154 394.27 170.462 390.949 170.462 Z" fill="#3f3d56" style=""></path>
    <rect x="174.535" y="181.089" width="214.366" height="120.924" fill="#fff" style="" class="illustration-screen-right"></rect>
    <circle class="illustration-camera" cx="281.534" cy="175.592" r="2.199" fill="#fff" style=""></circle>
    <polygon points="327.595 302.013 174.535 302.013 174.535 181.089 327.595 302.013" fill="#f2f2f2" style="isolation: isolate;" class="illustration-screen-left"></polygon>
    <circle cx="208.076" cy="272.359" r="20.606" fill="#6c63ff" style=""></circle>
    <path d="M 212.663 287.846 C 192.932 287.846 180.601 266.487 190.466 249.399 C 200.332 232.312 224.995 232.312 234.861 249.399 C 237.11 253.295 238.295 257.715 238.295 262.215 C 238.295 276.37 226.819 287.846 212.663 287.846 Z M 212.663 236.918 C 193.19 236.918 181.02 257.999 190.756 274.863 C 200.493 291.727 224.834 291.727 234.571 274.863 C 236.791 271.017 237.96 266.655 237.96 262.215 C 237.96 248.244 226.634 236.918 212.663 236.918 Z" fill="#3f3d56" style=""></path>
    <g class="illustration-text">
        <rect x="319.251" y="243.913" width="20.024" height="4.184" fill="#3f3d56" style=""></rect>
        <rect x="300.307" y="221.245" width="57.914" height="1.793" fill="#3f3d56" style=""></rect>
        <rect x="300.307" y="228.29" width="57.914" height="1.793" fill="#3f3d56" style=""></rect>
        <rect x="300.307" y="235.335" width="57.914" height="1.793" fill="#3f3d56" style=""></rect>
        <rect x="365.366" y="188.326" width="8.368" height="8.368" fill="#6c63ff" style=""></rect>
    </g>
    <path d="M 377.619 200.579 L 367.458 200.579 L 367.458 190.418 L 377.619 190.418 Z M 367.9 200.137 L 377.177 200.137 L 377.177 190.86 L 367.9 190.86 Z" fill="#ccc" style=""></path>
    <path class="illustration-computer" d="M 402.981 299.815 L 382.06 299.815 L 382.06 298.307 C 382.06 298.142 381.926 298.008 381.761 298.008 L 374.589 298.008 C 374.424 298.008 374.29 298.142 374.29 298.307 L 374.29 299.815 L 369.807 299.815 L 369.807 298.307 C 369.807 298.142 369.673 298.008 369.508 298.008 L 362.335 298.008 C 362.17 298.008 362.036 298.142 362.036 298.307 L 362.036 298.307 L 362.036 299.815 L 357.553 299.815 L 357.553 298.307 C 357.553 298.142 357.419 298.008 357.254 298.008 L 350.081 298.008 C 349.916 298.008 349.783 298.142 349.783 298.307 L 349.783 298.307 L 349.783 299.815 L 345.3 299.815 L 345.3 298.307 C 345.3 298.142 345.166 298.008 345.001 298.008 L 337.828 298.008 C 337.663 298.008 337.529 298.142 337.529 298.307 L 337.529 299.815 L 333.046 299.815 L 333.046 298.307 C 333.046 298.142 332.912 298.008 332.747 298.008 L 325.574 298.008 C 325.409 298.008 325.275 298.142 325.276 298.307 L 325.276 298.307 L 325.276 299.815 L 320.792 299.815 L 320.792 298.307 C 320.792 298.142 320.659 298.008 320.494 298.008 L 313.321 298.008 C 313.156 298.008 313.022 298.142 313.022 298.307 L 313.022 298.307 L 313.022 299.815 L 308.539 299.815 L 308.539 298.307 C 308.539 298.142 308.405 298.008 308.24 298.008 L 252.053 298.008 C 251.888 298.008 251.754 298.142 251.754 298.307 L 251.754 298.307 L 251.754 299.815 L 247.271 299.815 L 247.271 298.307 C 247.271 298.142 247.137 298.008 246.972 298.008 L 239.799 298.008 C 239.634 298.008 239.501 298.142 239.501 298.307 L 239.501 298.307 L 239.501 299.815 L 235.018 299.815 L 235.018 298.307 C 235.018 298.142 234.884 298.008 234.719 298.008 L 227.546 298.008 C 227.381 298.008 227.247 298.142 227.247 298.307 L 227.247 298.307 L 227.247 299.815 L 222.764 299.815 L 222.764 298.307 C 222.764 298.142 222.63 298.008 222.465 298.008 L 215.292 298.008 C 215.127 298.008 214.993 298.142 214.993 298.307 L 214.993 298.307 L 214.993 299.815 L 210.51 299.815 L 210.51 298.307 C 210.51 298.142 210.377 298.008 210.212 298.008 L 203.039 298.008 C 202.874 298.008 202.74 298.142 202.74 298.307 L 202.74 298.307 L 202.74 299.815 L 198.257 299.815 L 198.257 298.307 C 198.257 298.142 198.123 298.008 197.958 298.008 L 190.785 298.008 C 190.62 298.008 190.486 298.142 190.486 298.307 L 190.486 299.815 L 186.003 299.815 L 186.003 298.307 C 186.003 298.142 185.87 298.008 185.704 298.008 L 178.532 298.008 C 178.367 298.008 178.233 298.142 178.233 298.307 L 178.233 298.307 L 178.233 299.815 L 164.485 299.815 C 160.523 299.815 157.312 303.026 157.312 306.987 L 157.312 310.231 C 157.312 314.192 160.523 317.404 164.485 317.404 L 402.981 317.404 C 406.942 317.404 410.154 314.192 410.154 310.231 L 410.154 306.987 C 410.154 303.026 406.942 299.815 402.981 299.815 Z" fill="#3f3d56" style=""></path>
</svg>