<svg xmlns="http://www.w3.org/2000/svg" xmlns:xlink="http://www.w3.org/1999/xlink" version="1.1" viewBox="0 0 1218 914">
    
    
    <!-- ITEM 0 -->
    <g>
        <defs>
            <clipPath id="clip-path-id-viewbox-item-0">
                <rect x="0.0" y="0.0" width="328.0" height="198.0"/>
            </clipPath>
        </defs>
        <g transform="translate(254.0 170.0) rotate(0.0 482.0 291.0) scale(2.9390243902439024 2.9393939393939394)">
            <g clip-path="url(#clip-path-id-viewbox-item-0)" transform="translate(-0.0 -0.0)">
                
<rect x="0" y="0" fill="#EEEEEE" width="328" height="198"/>
<linearGradient id="SVGID_1_-i1" gradientUnits="userSpaceOnUse" x1="2.804" y1="17.9785" x2="323.629" y2="17.9785">
	<stop offset="0" style="stop-color:#B0CDFC"/>
	<stop offset="1" style="stop-color:#81AEF2"/>
</linearGradient>
<path fill="url(#SVGID_1_-i1)" d="M323.629,34.49H2.804V14.275c0-7.073,5.734-12.807,12.807-12.807h308.018V34.49z"/>
<path fill="#78A9EF" d="M40.639,38.084H5.712V17.771c0-7.019,5.69-12.709,12.709-12.709h22.218V38.084z"/>
<rect x="14.175" y="12.573" fill="#89B3F4" width="18" height="18"/>
<linearGradient id="SVGID_2_-i1" gradientUnits="userSpaceOnUse" x1="5.3333" y1="59" x2="64.8333" y2="59">
	<stop offset="0" style="stop-color:#EEEEEE"/>
	<stop offset="1" style="stop-color:#D6D7D8"/>
</linearGradient>
<rect x="5.333" y="52" fill="url(#SVGID_2_-i1)" width="59.5" height="14"/>
<rect x="59.167" y="52" fill="#F2F2F2" width="59.5" height="14"/>
<linearGradient id="SVGID_3_-i1" gradientUnits="userSpaceOnUse" x1="113" y1="59" x2="172.5" y2="59">
	<stop offset="0" style="stop-color:#EEEEEE"/>
	<stop offset="1" style="stop-color:#D6D7D8"/>
</linearGradient>
<rect x="113" y="52" fill="url(#SVGID_3_-i1)" width="59.5" height="14"/>
<rect x="166.833" y="52" fill="#F2F2F2" width="59.5" height="14"/>
<linearGradient id="SVGID_4_-i1" gradientUnits="userSpaceOnUse" x1="220.6667" y1="59" x2="280.1667" y2="59">
	<stop offset="0" style="stop-color:#EEEEEE"/>
	<stop offset="1" style="stop-color:#D6D7D8"/>
</linearGradient>
<rect x="220.667" y="52" fill="url(#SVGID_4_-i1)" width="59.5" height="14"/>
<rect x="263.5" y="52" fill="#F2F2F2" width="59.5" height="14"/>
<path fill="#F7F7F7" d="M296,45.333H63.333c-3.3,0-6-2.7-6-6v-2.667c0-3.3,2.7-6,6-6H296c3.3,0,6,2.7,6,6v2.667  C302,42.633,299.3,45.333,296,45.333z"/>
<circle fill="#23286B" cx="74.459" cy="41.238" r="1.5"/>
<circle fill="#23286B" cx="82.458" cy="41.238" r="1.5"/>
<circle fill="#23286B" cx="90.457" cy="41.238" r="1.5"/>

            </g>
        </g>
    </g>
    
    <!-- ITEM 1 -->
    <g>
        <defs>
            <clipPath id="clip-path-id-viewbox-item-1">
                <rect x="0.0" y="0.0" width="602.6" height="260.1"/>
            </clipPath>
        </defs>
        <g transform="translate(435.0 426.0) rotate(0.0 295.5 127.5) scale(0.9807500829737803 0.9803921568627451)">
            <g clip-path="url(#clip-path-id-viewbox-item-1)" transform="translate(-0.0 -0.0)">
                

<g>
	<path d="M145.1,194.3l-13.8,65.8h-17.1l13.8-65.8H0l3.7-17.1L167.2,0h19.3l-38.1,178h26.8l-3.5,16.4h-26.6L145.1,194.3   L145.1,194.3z M22.3,178.3h109L164,23.6L22.3,178.3z" style="fill:#383A48;"/>
	<path d="M375.2,218.2l-50.7,41.9h-81.1l-33.1-41.8l37.4-176.5L298.3,0h81.1l33.3,41.8L375.2,218.2z M228.1,214.3   l23.2,29.8h66.8l41.8-34.6l29.8-139.9L228.1,214.3z M262.9,50.7l-29.8,139.7L394.5,45.7l-23.2-29.8h-66.6L262.9,50.7z" style="fill:#383A48;"/>
	<path d="M561.1,194.3l-13.7,65.8h-17.1l13.8-65.8h-128l3.7-17.1L583.3,0h19.3l-38.1,178h26.8l-3.5,16.4h-26.7V194.3z    M438.4,178.3h109l32.7-154.7L438.4,178.3z" style="fill:#383A48;"/>
</g>

            </g>
        </g>
    </g>
    
    <!-- ITEM 2 -->
    <g>
        <defs>
            <clipPath id="clip-path-id-viewbox-item-2">
                <rect x="0.0" y="0.0" width="204.26" height="362.132"/>
            </clipPath>
        </defs>
        <g transform="translate(66.0 262.0) rotate(0.0 183.5 326.0) scale(1.7967296582786645 1.8004484552594082)">
            <g clip-path="url(#clip-path-id-viewbox-item-2)" transform="translate(-0.0 -0.0)">
                
<g>
	<g>
		<path fill="#013B84" d="M95.663,278.942l-4.041,35.448l-1.378,12.076l-0.754,6.596l-0.222,1.952l-0.718,6.309l-0.356,3.112    l-0.543,4.733l-0.029,0.271c0,0,3.242,0.089,6.998,0.194c1.656,0.048,3.412,0.097,5.03,0.149c0.917,0.024,1.783,0.053,2.571,0.077    c2.019,0.061,3.475,0.113,3.659,0.129l0.172-0.586l0.489-1.661l3.852-13.058l4.318-14.646l16.937-42.568    c0.73-1.835,1.277-3.737,1.633-5.679l7.003-38.185l-26.938-0.812l-15.823,39.571C96.537,274.569,95.909,276.792,95.663,278.942z"/>
	</g>
	<g>
		<path fill="#013B84" d="M69.645,276.32l-22.419,35.448l-7.636,12.076l-4.17,6.596l-1.235,1.952l-3.991,6.309l-1.967,3.112    l-2.99,4.733l-0.173,0.271c0,0-3.308,0.089-7.143,0.194c-1.692,0.048-3.485,0.097-5.142,0.149    c-0.935,0.024-1.823,0.053-2.628,0.077c-2.064,0.061-3.56,0.113-3.756,0.129l0.266-0.586l0.751-1.661l5.896-13.058l6.615-14.646    l13.875-46.797c0.751-2.534,1.834-4.957,3.22-7.207l19.977-32.429l27.544-0.812L72.697,269.74    C72.036,271.947,71.004,274.17,69.645,276.32z"/>
	</g>
	<polygon fill="#ED956E" points="174.073,126.587 137.193,114.949 126.522,128.921 141.307,137.555 167.799,137.169  "/>
	<path fill="#ED956E" d="M204.243,135.177c-0.314,0.964-1.385,1.636-2.63,1.552l-18.745-2.785l-1.838-5.972l22.712,6.426   c0.35,0.071,0.575,0.413,0.504,0.762C204.245,135.166,204.244,135.171,204.243,135.177z"/>
	<path fill="#ED956E" d="M201.248,137.197c-0.143,1.004-1.082,1.851-2.323,1.982l-18.945,0.488l-2.839-5.566l23.48,2.416   c0.357,0.01,0.638,0.307,0.628,0.664C201.249,137.186,201.248,137.191,201.248,137.197z"/>
	<path fill="#ED956E" d="M197.918,139.095c-0.172,0.999-1.136,1.818-2.38,1.912l-18.951-0.071l-2.674-5.647l23.398,3.107   c0.356,0.021,0.629,0.326,0.608,0.682C197.919,139.084,197.919,139.089,197.918,139.095z"/>
	<path fill="#ED956E" d="M191.303,141.558c-0.172,0.999-1.137,1.818-2.38,1.912l-13.988-0.052c-3.032-0.011-5.789-1.763-7.086-4.504   l-0.55-1.162l23.398,3.107c0.356,0.021,0.629,0.326,0.608,0.682C191.304,141.547,191.304,141.552,191.303,141.558z"/>
	<path fill="#ED956E" d="M172.895,143.119l5.33-8.422c0.97-3.288-0.926-6.772-4.214-7.743l-5-1.476   c-3.288-0.97-11.557,0.686-12.527,3.974l7.671,8.983c0.921,1.079,2.085,1.924,3.395,2.468L172.895,143.119z"/>
	<path fill="#ED956E" d="M163.494,126.404l15.168,4.476l-1.137-0.401c-0.108-0.04-0.214-0.086-0.317-0.144   c-1.058-0.579-1.447-1.907-0.871-2.966l0.008-0.04c0.365-0.661,1-1.135,1.739-1.295l3.541-0.752   c0.896-0.18,1.731-0.602,2.407-1.218c0.449-0.435,0.811-0.939,0.964-1.458c0.082-0.277,0.106-0.556,0.053-0.835   c-0.008-0.037-0.017-0.074-0.03-0.109c-0.161-0.449-0.656-0.684-1.105-0.523l-10.796,2.723l-2.655,0.067   c-1.629,0.033-3.226,0.455-4.66,1.229l-2.155,1.173C163.597,126.357,163.547,126.381,163.494,126.404z"/>
	<path fill="#ED956E" d="M164.591,125.961l16.041,4.734l-1.203-0.424c-0.114-0.042-0.226-0.091-0.335-0.152   c-1.119-0.612-1.53-2.017-0.922-3.137l0.008-0.042c0.386-0.699,1.057-1.2,1.839-1.37l3.745-0.795   c0.947-0.19,1.831-0.637,2.546-1.288c0.475-0.461,0.857-0.994,1.019-1.542c0.087-0.293,0.112-0.588,0.056-0.883   c-0.009-0.039-0.018-0.079-0.031-0.115c-0.17-0.475-0.694-0.724-1.169-0.553l-11.418,2.879l-2.808,0.07   c-1.723,0.035-3.411,0.481-4.928,1.3l-2.279,1.24C164.7,125.911,164.647,125.937,164.591,125.961z"/>
	
		<ellipse transform="matrix(-0.283 0.9591 -0.9591 -0.283 352.198 3.6512)" fill="#ED956E" cx="174.734" cy="133.466" rx="9.185" ry="9.93"/>
	<path fill="#002652" d="M108.464,14.992H134v0c0-6.585-4.68-12.241-11.149-13.473l-6.5-1.238c-4.095-0.78-7.888,2.359-7.888,6.527   V14.992z"/>
	<g>
		<path fill="#013B84" d="M150.754,142.639l3.053,14.512c0.821,3.901,0.856,7.927,0.103,11.842l-15.524,80.711    c-1.195,6.214-7.661,9.89-13.611,7.734c-7.664-2.777-16.389-6.006-16.364-6.301l3.82-107.386L150.754,142.639z"/>
	</g>
	<g>
		<path fill="#013B84" d="M133.637,142.639l1.117,14.992l-13.415,17.663l-45.176,82.288c0,0-30.987-5.918-30.785-6.444    l41.551-107.386L133.637,142.639z"/>
	</g>
	<path fill="#016EEA" d="M151.067,145.321l-71.805,18.497l-1.118-53.608l-9.33-27.655c-0.335-0.993-0.512-2.033-0.524-3.081   l-0.165-14.313l66.419,14.718L151.067,145.321z"/>
	<g>
		<path fill="#ED956E" d="M113.015,325.785l-2.622,8.899l-3.854,13.056l-0.487,1.663l-0.172,0.584    c-0.184-0.015-1.64-0.067-3.659-0.127c-0.79-0.026-1.655-0.052-2.573-0.079c-1.618-0.052-3.374-0.101-5.03-0.15    c-3.756-0.105-6.996-0.191-6.996-0.191l0.026-0.273l0.543-4.73l0.356-3.112l0.719-6.311l0.225-1.951l0.753-6.595l0.079-0.682    H113.015z"/>
	</g>
	<g>
		<path fill="#ED956E" d="M35.419,330.441l-1.232,1.951l-3.992,6.311l-1.966,3.112l-2.992,4.73l-0.172,0.273    c0,0-3.307,0.086-7.142,0.191c-1.693,0.049-3.483,0.097-5.142,0.15c-0.933,0.026-1.82,0.052-2.629,0.079    c-2.064,0.06-3.558,0.112-3.753,0.127l0.262-0.584l0.753-1.663l5.895-13.056l2.835-6.277L35.419,330.441z"/>
	</g>
	<polygon fill="#002652" points="120.159,9.121 120.159,14.897 125.307,14.897 125.307,34.219 127.238,34.219 136.635,19.763    132.379,8.819  "/>
	<path fill="#2888FF" d="M131.297,356.377l4.399-2.62c1.213-0.723,2.057-1.958,2.244-3.284l0,0c0.274-1.949-0.927-3.602-2.818-3.877   l-8.342-1.216c-5.272-0.769-9.621-3.836-11.919-8.406l-2.751-5.471l-3.659,2.059c-0.882,0.496-1.337,1.523-1.057,2.387l0.801,2.472   l-5.018,1.97c-3.399,1.334-7.004,0.72-9.286-1.583l-3.524-3.555c-0.617-0.623-1.795-0.156-1.976,0.784l-3.079,15.995l0.434,3.765   L131.297,356.377z"/>
	<path fill="#93C3FF" d="M83.931,353.082l0.523,1.583c0.942,2.848,3.552,4.665,6.7,4.665h33.471c0.643,0,1.299-0.166,1.904-0.481   l7.996-4.17h-27.56c-0.488,0-0.93-0.191-1.232-0.531l0,0c-1.516-1.71-3.736-2.667-6.188-2.667H85.173   C84.349,351.48,83.685,352.337,83.931,353.082z"/>
	<path fill="#C78982" d="M130.478,16.57l0.129,22.123c-0.066,2.616-2.662,4.409-5.131,3.544l-22.903-8.023L130.478,16.57z"/>
	<path fill="#ED956E" d="M128.675,30.012l3.917-0.094c1.632-0.039,2.436-2.003,1.299-3.175l-4.972-5.129L128.675,30.012z"/>
	<path fill="#C78982" d="M117.527,2.783l-0.504-0.013c-2.13-0.053-3.899,1.63-3.953,3.759l-0.336,13.391l17.856,0.448l0.094-3.751   C130.871,9.164,124.98,2.97,117.527,2.783z"/>
	<path fill="#016EEA" d="M144.765,82.302l-3.517-16.625c-0.879-4.158-4.029-7.463-8.14-8.542l-51.06-13.403   c-7.174-1.883-14.173,3.579-14.087,10.996l0.281,24.423l15.447,7.127L144.765,82.302z"/>
	<path fill="#016EEA" d="M155.566,143.309l-46.221-14.244c-6.518-2.009-10.174-8.921-8.165-15.439l0.547-1.776   c1.253-4.066,5.565-6.347,9.631-5.094l50.661,15.612L155.566,143.309z"/>
	<path fill="#ED956E" d="M96.953,24.001h20.86v41.289c0,1.002-1.212,1.503-1.919,0.793L96.953,47.073V24.001z"/>
	
		<rect x="119.315" y="17.679" transform="matrix(-0.9997 -0.0251 0.0251 -0.9997 249.166 52.7158)" fill="#C78982" width="11.197" height="14.233"/>
	<path fill="#ED956E" d="M112.768,0.009h-5.3c-5.791,0-10.486,4.695-10.486,10.486v26.216h33.706V17.93   C130.689,8.032,122.665,0.009,112.768,0.009z"/>
	<polygon fill="#016EEA" points="133.056,118.61 122.093,83.268 142.929,76.485 153.892,111.827  "/>
	<path opacity="0.1" fill="#002652" d="M130.449,20.648h-2.565c-0.298,0-0.584,0.118-0.794,0.329l-1.068,1.068   c-0.708,0.708-0.207,1.918,0.794,1.918h3.104"/>
	<path fill="#002652" d="M116.533,24.562v3.971c0,3.662,2.179,6.972,5.542,8.42l0,0v0c0-2.872,2.328-5.201,5.201-5.201h3.413v10.642   c0,2.639-2.657,4.451-5.114,3.486l-9.737-3.822c-1.434-0.563-2.377-1.946-2.377-3.486V21.491h0   C115.158,21.491,116.533,22.866,116.533,24.562z"/>
	<path fill="#ED956E" d="M126.769,37.68l2.579,0.595c0.686,0.158,1.341-0.363,1.341-1.067V34.09h-2.472   c-1.324,0-2.397,1.073-2.397,2.397v0C125.82,37.057,126.213,37.551,126.769,37.68z"/>
	<polygon fill="#ED956E" points="140.395,151.45 153.653,155.302 153.396,144.885 144.049,145.169  "/>
	<path fill="#ED956E" d="M148.312,142.013l-8.372,6.47c-0.396,0.306-0.667,0.747-0.763,1.238l-0.488,2.524   c-0.071,0.37-0.243,0.713-0.496,0.992l-3.825,4.221c-0.153,0.169-0.14,0.429,0.029,0.582l0.787,0.713   c0.934,0.846,2.351,0.867,3.31,0.05l3.179-2.71c0.376-0.32,0.663-0.732,0.834-1.196l1.328-3.6l7.056-5.399L148.312,142.013z"/>
	<path fill="#2888FF" d="M0.076,356.966h24.107l1.329-3.707c1.074-2.995,1.367-6.215,0.851-9.355l-0.683-4.157l-9.776-5.51   l-9.837,5.51l-4.916,7.773c-0.772,1.22-1.172,2.639-1.152,4.082L0.076,356.966z"/>
	<path fill="#93C3FF" d="M3.998,362.132h16.608c0.936,0,1.767-0.511,2.068-1.27l1.681-4.24H0.248l1.681,4.24   C2.23,361.621,3.062,362.132,3.998,362.132z"/>
	<path fill="#2888FF" d="M12.381,332.111h10.03c1.034,0,1.704,0.838,1.496,1.873l-1.946,9.686c-0.208,1.034-1.215,1.873-2.249,1.873   H9.682c-1.034,0-1.704-0.838-1.496-1.873l1.946-9.686C10.34,332.949,11.346,332.111,12.381,332.111z"/>
	<path fill="#93C3FF" d="M14.023,353.867h-3.444c-1.421,0-2.583,1.162-2.583,2.583v0c0,1.421,1.162,2.583,2.583,2.583h3.444   c1.421,0,2.583-1.162,2.583-2.583v0C16.606,355.029,15.444,353.867,14.023,353.867z"/>
	<path fill="#016EEA" d="M142.566,145.6l-10.584-30.786c-1.092-3.177-0.076-6.698,2.541-8.805l2.938-2.365   c3.431-2.761,8.451-2.219,11.212,1.212l3.867,4.805c1.214,1.508,1.837,3.406,1.755,5.339l-0.979,30.527L142.566,145.6z"/>
	<path fill="#002652" d="M125.853,2.739v11.883c0,2.31-1.873,4.183-4.183,4.183h-4.217c-2.232,0-4.042,1.809-4.042,4.042v9.908   c0,2.01-1.63,3.64-3.64,3.64l0,0c-0.965,0-1.891-0.384-2.574-1.066L92.96,21.091c-0.789-0.789-0.789-2.069,0-2.858L103.875,5.02   c3.296-3.99,8.6-5.716,13.613-4.429L125.853,2.739z"/>
	<path fill="#002652" d="M113.644,0h-11.858c-6.171,0-11.173,5.002-11.173,11.173v20.09c0,0.881,0.614,1.643,1.475,1.83   l21.556,4.683V0z"/>
	<path fill="#ED956E" d="M106.721,17.414h0.347c2.656,0,4.809,2.153,4.809,4.809v9.267l-3.849-2.352   c-1.573-0.961-2.631-2.577-2.883-4.403l-0.656-4.759C104.302,18.622,105.354,17.414,106.721,17.414z"/>
</g>

            </g>
        </g>
    </g>
    
</svg>